<svg xmlns="http://www.w3.org/2000/svg" xmlns:xlink="http://www.w3.org/1999/xlink" width="500" zoomAndPan="magnify" viewBox="0 0 375 374.999991" height="500" preserveAspectRatio="xMidYMid meet" version="1.0"><defs><clipPath id="66fb86dd5e"><path d="M 8.082031 8.082031 L 366.582031 8.082031 L 366.582031 366.582031 L 8.082031 366.582031 Z M 8.082031 8.082031 " clip-rule="nonzero"/></clipPath></defs><g clip-path="url(#66fb86dd5e)"><path fill="#ef9230" d="M 187.332031 8.082031 C 88.328125 8.082031 8.082031 88.328125 8.082031 187.332031 C 8.082031 286.339844 88.328125 366.582031 187.332031 366.582031 C 286.339844 366.582031 366.582031 286.339844 366.582031 187.332031 C 366.582031 88.328125 286.339844 8.082031 187.332031 8.082031 Z M 187.332031 233.703125 C 161.722656 233.703125 140.964844 212.941406 140.964844 187.332031 C 140.964844 161.722656 161.722656 140.964844 187.332031 140.964844 C 212.941406 140.964844 233.703125 161.722656 233.703125 187.332031 C 233.703125 212.941406 212.941406 233.703125 187.332031 233.703125 Z M 187.332031 233.703125 " fill-opacity="1" fill-rule="nonzero"/></g><path fill="#d36c27" d="M 59.109375 85.535156 C 59.109375 85.535156 36.570312 93.90625 22.402344 160.242188 C 22.402344 160.242188 23.046875 180.847656 19.179688 200.8125 C 15.316406 220.777344 17.894531 253.621094 28.195312 268.433594 C 38.5 283.246094 52.027344 290.976562 67.480469 301.28125 C 82.9375 311.582031 92.597656 314.804688 99.039062 323.175781 C 105.480469 331.546875 118.359375 340.566406 118.359375 332.191406 C 118.359375 323.820312 101.613281 303.210938 90.023438 293.550781 C 78.429688 283.890625 52.667969 258.132812 54.601562 238.167969 C 56.535156 218.203125 55.890625 162.816406 56.535156 153.15625 C 57.179688 143.496094 64.90625 88.753906 59.109375 85.535156 Z M 59.109375 85.535156 " fill-opacity="1" fill-rule="nonzero"/><path fill="#d36c27" d="M 271.226562 326.695312 C 271.226562 326.695312 295.269531 326.03125 330.023438 267.769531 C 330.023438 267.769531 336.054688 248.042969 346.125 230.394531 C 356.214844 212.726562 361.644531 167.90625 356.644531 150.558594 C 351.664062 133.214844 347.992188 134.375 336.679688 119.648438 C 325.367188 104.921875 313.300781 98.824219 309.910156 88.820312 C 306.496094 78.816406 297.222656 66.128906 294.519531 74.074219 C 291.8125 81.992188 301.042969 106.894531 308.902344 119.777344 C 316.757812 132.65625 332.859375 165.351562 324.613281 183.617188 C 316.351562 201.910156 299.132812 254.546875 295.417969 263.496094 C 291.726562 272.449219 266.78125 321.78125 271.226562 326.695312 Z M 271.226562 326.695312 " fill-opacity="1" fill-rule="nonzero"/><path fill="#f16b97" d="M 338.460938 138.238281 C 333.117188 121.773438 332.773438 102.625 322.8125 88.90625 C 312.742188 75.058594 294.5625 68.878906 280.714844 58.808594 C 267.019531 48.847656 255.554688 33.390625 239.089844 28.046875 C 223.203125 22.894531 204.9375 28.476562 187.332031 28.476562 C 169.730469 28.476562 151.460938 22.894531 135.574219 28.046875 C 119.109375 33.390625 107.648438 48.828125 93.949219 58.808594 C 80.105469 68.878906 61.921875 75.082031 51.855469 88.90625 C 41.894531 102.601562 41.550781 121.773438 36.203125 138.238281 C 31.050781 154.121094 19.890625 169.75 19.890625 187.332031 C 19.890625 204.9375 31.050781 220.5625 36.203125 236.429688 C 41.550781 252.894531 41.894531 272.042969 51.855469 285.757812 C 61.921875 299.605469 80.105469 305.789062 93.949219 315.855469 C 107.648438 325.816406 119.109375 341.273438 135.574219 346.617188 C 151.460938 351.769531 169.730469 346.1875 187.332031 346.1875 C 204.9375 346.1875 223.203125 351.769531 239.089844 346.617188 C 255.554688 341.273438 267.019531 325.839844 280.714844 315.855469 C 294.5625 305.789062 312.742188 299.582031 322.8125 285.757812 C 332.773438 272.0625 333.117188 252.894531 338.460938 236.429688 C 343.613281 220.542969 354.777344 204.914062 354.777344 187.332031 C 354.777344 169.730469 343.613281 154.101562 338.460938 138.238281 Z M 187.332031 240.570312 C 157.921875 240.570312 134.09375 216.742188 134.09375 187.332031 C 134.09375 157.921875 157.921875 134.09375 187.332031 134.09375 C 216.742188 134.09375 240.570312 157.921875 240.570312 187.332031 C 240.570312 216.742188 216.742188 240.570312 187.332031 240.570312 Z M 187.332031 240.570312 " fill-opacity="1" fill-rule="nonzero"/><path fill="#f27f9d" d="M 140.75 67.332031 C 140.75 67.332031 121.859375 62.179688 107.261719 87.941406 C 92.664062 113.699219 84.074219 112.84375 88.371094 130.015625 C 92.664062 147.1875 76.347656 172.089844 93.523438 169.515625 C 110.695312 166.9375 108.976562 158.351562 114.988281 148.90625 C 121 139.460938 125.292969 126.582031 143.324219 120.570312 C 161.359375 114.558594 173.378906 109.40625 176.8125 99.960938 C 180.25 90.515625 175.953125 65.613281 140.75 67.332031 Z M 140.75 67.332031 " fill-opacity="1" fill-rule="nonzero"/><path fill="#f7afc1" d="M 123.703125 96.613281 C 136.457031 84.933594 150.945312 77.527344 157.492188 87.941406 C 164.492188 99.058594 152.339844 94.378906 134.308594 103.394531 C 116.277344 112.414062 110.265625 129.585938 106.960938 128.8125 C 103.226562 127.953125 113.914062 105.585938 123.703125 96.613281 Z M 123.703125 96.613281 " fill-opacity="1" fill-rule="nonzero"/><path fill="#f27f9d" d="M 86.652344 213.308594 C 86.652344 213.308594 59.175781 213.308594 64.328125 231.339844 C 69.476562 249.371094 72.914062 252.808594 82.359375 272.558594 C 91.804688 292.304688 87.511719 308.621094 109.835938 311.199219 C 132.164062 313.773438 186.257812 321.5 150.195312 300.894531 C 114.128906 280.285156 122.714844 299.175781 111.554688 275.132812 C 100.390625 251.089844 107.261719 261.394531 100.390625 239.066406 C 93.523438 216.742188 93.523438 216.742188 86.652344 213.308594 Z M 86.652344 213.308594 " fill-opacity="1" fill-rule="nonzero"/><path fill="#f7b0bf" d="M 203.863281 128.296875 C 203.863281 128.296875 219.320312 120.570312 228.765625 134.308594 C 238.210938 148.046875 244.21875 189.265625 254.523438 200.425781 C 264.828125 211.589844 233.015625 241.386719 219.492188 241.386719 C 209.703125 241.386719 217.449219 231.621094 220.132812 229.152344 C 223.183594 226.339844 239.109375 210.300781 240.355469 196.5625 C 242.246094 175.976562 237.027344 156.183594 216.980469 143.238281 C 212.941406 140.640625 194.761719 133.578125 203.863281 128.296875 Z M 203.863281 128.296875 " fill-opacity="1" fill-rule="nonzero"/><path fill="#ee3d82" d="M 157.277344 131.519531 C 157.277344 131.519531 152.984375 143.539062 134.09375 153.84375 C 115.203125 164.148438 116.0625 178.746094 122.074219 186.472656 C 128.082031 194.203125 130.660156 224.257812 140.964844 231.125 C 151.269531 237.996094 150.988281 231.726562 141.542969 216.269531 C 132.097656 200.8125 128.664062 169.257812 145.257812 152.984375 C 159.726562 138.796875 168.441406 134.953125 157.277344 131.519531 Z M 157.277344 131.519531 " fill-opacity="1" fill-rule="nonzero"/><path fill="#f7b2c3" d="M 86.652344 240.785156 C 86.652344 240.785156 84.074219 245.9375 89.226562 263.113281 C 94.378906 280.285156 96.097656 293.164062 104.683594 298.316406 C 113.269531 303.46875 127.011719 306.902344 128.726562 305.1875 C 130.445312 303.46875 119.28125 305.1875 113.269531 295.742188 C 107.261719 286.296875 94.378906 235.632812 86.652344 240.785156 Z M 86.652344 240.785156 " fill-opacity="1" fill-rule="nonzero"/><path fill="#f7b1c2" d="M 131.238281 339.296875 C 124.15625 333.5 119.003906 321.910156 113.851562 317.402344 C 108.699219 312.894531 79.074219 300.011719 76.5 294.21875 C 73.921875 288.421875 70.703125 284.558594 66.839844 278.761719 C 62.972656 272.964844 59.109375 272.320312 52.667969 257.507812 C 46.230469 242.695312 48.804688 237.542969 46.230469 231.105469 C 43.652344 224.664062 42.367188 216.292969 40.433594 209.851562 C 38.5 203.410156 44.296875 182.804688 42.367188 175.71875 C 40.433594 168.636719 46.230469 159.617188 46.230469 154.464844 C 46.230469 149.3125 44.941406 136.433594 46.875 129.351562 C 48.804688 122.265625 53.957031 104.234375 57.179688 97.148438 C 60.398438 90.066406 72.632812 80.40625 91.953125 68.8125 C 111.273438 57.222656 120.289062 44.339844 122.222656 43.050781 C 123.425781 42.257812 123.617188 37.515625 123.617188 34.015625 C 113.011719 41.078125 104.105469 51.445312 93.949219 58.832031 C 80.105469 68.898438 61.921875 75.101562 51.855469 88.925781 C 41.894531 102.625 41.550781 121.792969 36.203125 138.257812 C 31.050781 154.144531 19.890625 169.773438 19.890625 187.355469 C 19.890625 204.957031 31.050781 220.585938 36.203125 236.449219 C 41.550781 252.914062 41.894531 272.0625 51.855469 285.78125 C 61.921875 299.625 80.105469 305.808594 93.949219 315.878906 C 107.648438 325.839844 119.109375 341.292969 135.574219 346.640625 C 136.886719 347.070312 138.195312 347.414062 139.527344 347.691406 C 137.226562 344.878906 134.222656 341.746094 131.238281 339.296875 Z M 131.238281 339.296875 " fill-opacity="1" fill-rule="nonzero"/><path fill="#f27f9d" d="M 271.269531 135.167969 C 271.269531 135.167969 269.550781 117.992188 249.800781 108.546875 C 230.050781 99.101562 218.03125 85.363281 224.042969 80.210938 C 230.050781 75.058594 252.378906 66.472656 270.410156 84.503906 C 288.441406 102.539062 328.800781 143.753906 320.214844 172.949219 C 311.625 202.144531 303.898438 231.339844 298.746094 251.089844 C 293.59375 270.839844 282.433594 284.578125 268.691406 282.003906 C 254.953125 279.425781 237.78125 290.589844 230.050781 292.304688 C 222.324219 294.023438 209.445312 292.304688 236.921875 266.546875 C 264.398438 240.785156 280.714844 232.199219 282.433594 200.425781 C 284.148438 168.65625 270.410156 161.785156 271.269531 135.167969 Z M 271.269531 135.167969 " fill-opacity="1" fill-rule="nonzero"/><path fill="#f7afc2" d="M 274.617188 115.867188 C 274.617188 115.867188 284.601562 128.75 286.210938 149.355469 C 287.820312 169.964844 286.53125 177.371094 290.394531 183.488281 C 294.261719 189.609375 310.683594 171.898438 303.277344 156.441406 C 295.871094 140.984375 277.515625 103.953125 274.617188 115.867188 Z M 274.617188 115.867188 " fill-opacity="1" fill-rule="nonzero"/><path fill="#f7afc2" d="M 254.007812 267.535156 C 247.976562 264.851562 268.820312 258.195312 273.007812 247.570312 C 277.195312 236.941406 278.804688 252.398438 278.804688 252.398438 C 278.804688 252.398438 282.347656 267.210938 276.550781 269.789062 C 270.753906 272.363281 256.90625 268.820312 254.007812 267.535156 Z M 254.007812 267.535156 " fill-opacity="1" fill-rule="nonzero"/><path fill="#ee3d82" d="M 338.460938 138.238281 C 337.988281 136.800781 337.558594 135.316406 337.152344 133.835938 C 337.257812 138.28125 337.582031 142.402344 338.246094 145.472656 C 340.820312 157.492188 351.984375 190.980469 331.375 216.742188 C 310.769531 242.503906 304.757812 248.515625 300.464844 269.121094 C 296.171875 289.730469 295.3125 277.707031 266.117188 301.753906 C 236.921875 325.796875 242.933594 328.371094 225.757812 338.675781 C 208.585938 348.980469 164.75 340.820312 135.574219 346.617188 C 151.460938 351.769531 169.730469 346.1875 187.332031 346.1875 C 204.9375 346.1875 223.203125 351.769531 239.089844 346.617188 C 255.554688 341.273438 267.019531 325.839844 280.714844 315.855469 C 294.5625 305.789062 312.742188 299.582031 322.8125 285.757812 C 332.773438 272.0625 333.117188 252.894531 338.460938 236.429688 C 343.613281 220.542969 354.777344 204.914062 354.777344 187.332031 C 354.777344 169.730469 343.613281 154.101562 338.460938 138.238281 Z M 338.460938 138.238281 " fill-opacity="1" fill-rule="nonzero"/><path fill="#ee3d82" d="M 187.976562 37.277344 C 197.421875 39.855469 218.890625 45.007812 242.074219 49.300781 C 265.257812 53.59375 310.769531 76.777344 319.355469 90.515625 C 322.574219 95.667969 326.054688 99.015625 329.121094 101.183594 C 327.535156 96.804688 325.539062 92.640625 322.8125 88.90625 C 312.742188 75.058594 298.382812 60.828125 284.535156 50.757812 C 270.839844 40.796875 255.554688 33.390625 239.089844 28.046875 C 223.203125 22.894531 204.9375 28.476562 187.332031 28.476562 C 183.148438 28.476562 178.917969 28.15625 174.710938 27.746094 C 177.867188 31.351562 182.652344 35.816406 187.976562 37.277344 Z M 187.976562 37.277344 " fill-opacity="1" fill-rule="nonzero"/><path fill="#ec008c" d="M 317.765625 169.320312 C 316.90625 169.320312 316.09375 168.890625 315.597656 168.121094 C 314.824219 166.917969 315.191406 165.328125 316.394531 164.554688 L 327.597656 157.40625 C 328.800781 156.632812 330.390625 157 331.160156 158.203125 C 331.933594 159.402344 331.570312 160.992188 330.367188 161.765625 L 319.160156 168.914062 C 318.710938 169.191406 318.238281 169.320312 317.765625 169.320312 Z M 317.765625 169.320312 " fill-opacity="1" fill-rule="nonzero"/><path fill="#aadff1" d="M 222.066406 323.839844 C 221.53125 323.839844 220.972656 323.667969 220.5 323.328125 L 209.9375 315.296875 C 208.800781 314.4375 208.585938 312.828125 209.445312 311.691406 C 210.300781 310.554688 211.914062 310.339844 213.050781 311.199219 L 223.613281 319.226562 C 224.75 320.085938 224.964844 321.695312 224.105469 322.832031 C 223.613281 323.5 222.839844 323.839844 222.066406 323.839844 Z M 222.066406 323.839844 " fill-opacity="1" fill-rule="nonzero"/><path fill="#00a651" d="M 106.402344 314.738281 C 105.542969 314.738281 104.726562 314.308594 104.234375 313.558594 L 96.890625 302.050781 C 96.117188 300.851562 96.484375 299.261719 97.6875 298.488281 C 98.886719 297.714844 100.476562 298.082031 101.25 299.285156 L 108.589844 310.789062 C 109.363281 311.992188 109 313.582031 107.796875 314.351562 C 107.347656 314.609375 106.875 314.738281 106.402344 314.738281 Z M 106.402344 314.738281 " fill-opacity="1" fill-rule="nonzero"/><path fill="#fff200" d="M 251.796875 299.5625 C 251.753906 299.5625 251.691406 299.5625 251.648438 299.5625 C 250.230469 299.476562 249.136719 298.253906 249.222656 296.835938 L 250.144531 281.402344 C 250.230469 279.984375 251.453125 278.910156 252.871094 278.976562 C 254.289062 279.0625 255.382812 280.285156 255.296875 281.703125 L 254.375 297.136719 C 254.265625 298.511719 253.152344 299.5625 251.796875 299.5625 Z M 251.796875 299.5625 " fill-opacity="1" fill-rule="nonzero"/><path fill="#ffffff" d="M 89.378906 96.484375 C 88.882812 96.484375 88.390625 96.332031 87.941406 96.054688 L 75.554688 87.769531 C 74.371094 86.972656 74.050781 85.386719 74.84375 84.203125 C 75.640625 83.023438 77.226562 82.703125 78.410156 83.496094 L 90.796875 91.78125 C 91.976562 92.578125 92.296875 94.164062 91.503906 95.347656 C 91.03125 96.074219 90.214844 96.484375 89.378906 96.484375 Z M 89.378906 96.484375 " fill-opacity="1" fill-rule="nonzero"/><path fill="#00aeef" d="M 83.582031 195.019531 C 82.875 195.019531 82.164062 194.71875 81.648438 194.136719 L 71.195312 182.265625 C 70.25 181.191406 70.359375 179.5625 71.433594 178.636719 C 72.503906 177.695312 74.136719 177.800781 75.058594 178.875 L 85.515625 190.765625 C 86.457031 191.839844 86.351562 193.472656 85.277344 194.394531 C 84.785156 194.804688 84.183594 195.019531 83.582031 195.019531 Z M 83.582031 195.019531 " fill-opacity="1" fill-rule="nonzero"/><path fill="#fff200" d="M 51.382812 218.203125 C 50.585938 218.203125 49.816406 217.835938 49.320312 217.171875 L 40.433594 205.234375 C 39.574219 204.097656 39.8125 202.488281 40.96875 201.628906 C 42.109375 200.769531 43.71875 201.007812 44.578125 202.167969 L 53.464844 214.101562 C 54.324219 215.238281 54.085938 216.851562 52.925781 217.707031 C 52.453125 218.050781 51.917969 218.203125 51.382812 218.203125 Z M 51.382812 218.203125 " fill-opacity="1" fill-rule="nonzero"/><path fill="#aadff1" d="M 64.582031 279.46875 C 64.476562 279.46875 64.390625 279.46875 64.285156 279.449219 C 62.867188 279.277344 61.859375 278.007812 62.03125 276.59375 L 63.640625 262.984375 C 63.8125 261.566406 65.097656 260.558594 66.496094 260.726562 C 67.910156 260.898438 68.921875 262.167969 68.75 263.582031 L 67.136719 277.195312 C 66.988281 278.503906 65.871094 279.46875 64.582031 279.46875 Z M 64.582031 279.46875 " fill-opacity="1" fill-rule="nonzero"/><path fill="#00aeef" d="M 107.410156 269.101562 C 106.960938 269.101562 106.488281 268.972656 106.078125 268.734375 C 104.855469 268.003906 104.46875 266.417969 105.222656 265.195312 L 112.5 253.195312 C 113.226562 251.96875 114.816406 251.582031 116.039062 252.335938 C 117.265625 253.066406 117.652344 254.652344 116.898438 255.875 L 109.621094 267.878906 C 109.128906 268.648438 108.289062 269.101562 107.410156 269.101562 Z M 107.410156 269.101562 " fill-opacity="1" fill-rule="nonzero"/><path fill="#ffffff" d="M 92.597656 234.300781 L 76.175781 234.257812 C 74.757812 234.257812 73.601562 233.101562 73.601562 231.683594 C 73.601562 230.265625 74.757812 229.109375 76.175781 229.109375 L 92.597656 229.152344 C 94.015625 229.152344 95.175781 230.308594 95.175781 231.726562 C 95.175781 233.164062 94.015625 234.300781 92.597656 234.300781 Z M 92.597656 234.300781 " fill-opacity="1" fill-rule="nonzero"/><path fill="#ec008c" d="M 130.59375 227.21875 C 130.207031 227.21875 129.824219 227.132812 129.4375 226.9375 L 116.75 220.605469 C 115.480469 219.960938 114.96875 218.417969 115.589844 217.148438 C 116.234375 215.882812 117.78125 215.367188 119.046875 215.992188 L 131.734375 222.324219 C 133 222.96875 133.515625 224.511719 132.890625 225.78125 C 132.441406 226.703125 131.539062 227.21875 130.59375 227.21875 Z M 130.59375 227.21875 " fill-opacity="1" fill-rule="nonzero"/><path fill="#ec008c" d="M 254.160156 187.613281 C 253.601562 187.613281 253.042969 187.441406 252.570312 187.074219 C 251.453125 186.195312 251.238281 184.585938 252.121094 183.46875 L 261.886719 170.910156 C 262.769531 169.792969 264.378906 169.578125 265.496094 170.460938 C 266.609375 171.339844 266.824219 172.949219 265.945312 174.066406 L 256.175781 186.625 C 255.683594 187.269531 254.910156 187.613281 254.160156 187.613281 Z M 254.160156 187.613281 " fill-opacity="1" fill-rule="nonzero"/><path fill="#39b54a" d="M 281.960938 218.203125 C 281.53125 218.203125 281.078125 218.09375 280.671875 217.859375 L 266.890625 209.957031 C 265.664062 209.25 265.238281 207.683594 265.945312 206.4375 C 266.652344 205.214844 268.21875 204.785156 269.464844 205.492188 L 283.246094 213.394531 C 284.472656 214.101562 284.902344 215.667969 284.191406 216.914062 C 283.71875 217.75 282.839844 218.203125 281.960938 218.203125 Z M 281.960938 218.203125 " fill-opacity="1" fill-rule="nonzero"/><path fill="#00aeef" d="M 319.847656 217.277344 C 319.398438 217.277344 318.945312 217.171875 318.539062 216.914062 C 317.316406 216.183594 316.90625 214.617188 317.617188 213.394531 L 323.519531 203.390625 C 324.25 202.167969 325.816406 201.757812 327.039062 202.46875 C 328.265625 203.195312 328.671875 204.765625 327.964844 205.988281 L 322.058594 215.992188 C 321.609375 216.828125 320.75 217.277344 319.847656 217.277344 Z M 319.847656 217.277344 " fill-opacity="1" fill-rule="nonzero"/><path fill="#aadff1" d="M 249.113281 249.113281 C 248.984375 249.113281 248.855469 249.113281 248.726562 249.09375 C 247.3125 248.878906 246.34375 247.570312 246.582031 246.152344 L 248.941406 230.761719 C 249.15625 229.34375 250.46875 228.398438 251.882812 228.613281 C 253.300781 228.828125 254.265625 230.136719 254.03125 231.554688 L 251.667969 246.945312 C 251.453125 248.214844 250.359375 249.113281 249.113281 249.113281 Z M 249.113281 249.113281 " fill-opacity="1" fill-rule="nonzero"/><path fill="#ffffff" d="M 314.761719 257.59375 C 313.902344 257.59375 313.085938 257.164062 312.59375 256.414062 L 304.285156 243.425781 C 303.511719 242.222656 303.855469 240.636719 305.058594 239.863281 C 306.261719 239.089844 307.847656 239.433594 308.621094 240.636719 L 316.929688 253.621094 C 317.703125 254.824219 317.359375 256.414062 316.15625 257.1875 C 315.707031 257.464844 315.234375 257.59375 314.761719 257.59375 Z M 314.761719 257.59375 " fill-opacity="1" fill-rule="nonzero"/><path fill="#ec008c" d="M 292.304688 280.585938 C 291.792969 280.585938 291.253906 280.433594 290.804688 280.089844 L 281.078125 273.113281 C 279.921875 272.277344 279.664062 270.667969 280.5 269.53125 C 281.335938 268.371094 282.945312 268.113281 284.085938 268.949219 L 293.808594 275.925781 C 294.96875 276.765625 295.226562 278.375 294.390625 279.511719 C 293.917969 280.199219 293.121094 280.585938 292.304688 280.585938 Z M 292.304688 280.585938 " fill-opacity="1" fill-rule="nonzero"/><path fill="#fff200" d="M 156.65625 267.769531 C 155.410156 267.769531 154.316406 266.867188 154.125 265.601562 C 153.910156 264.207031 154.851562 262.875 156.269531 262.660156 L 172.070312 260.128906 C 173.464844 259.890625 174.796875 260.855469 175.011719 262.273438 C 175.226562 263.667969 174.28125 265 172.863281 265.214844 L 157.0625 267.75 C 156.933594 267.75 156.785156 267.769531 156.65625 267.769531 Z M 156.65625 267.769531 " fill-opacity="1" fill-rule="nonzero"/><path fill="#ffffff" d="M 142.292969 306.046875 C 141.457031 306.046875 140.640625 305.636719 140.125 304.886719 L 128.835938 287.648438 C 128.0625 286.46875 128.382812 284.859375 129.585938 284.085938 C 130.765625 283.3125 132.375 283.632812 133.148438 284.835938 L 144.441406 302.074219 C 145.214844 303.253906 144.890625 304.863281 143.691406 305.636719 C 143.261719 305.894531 142.765625 306.046875 142.292969 306.046875 Z M 142.292969 306.046875 " fill-opacity="1" fill-rule="nonzero"/><path fill="#00aeef" d="M 183.125 308.664062 C 182.246094 308.664062 181.386719 308.214844 180.890625 307.398438 L 172.800781 293.59375 C 172.089844 292.371094 172.5 290.78125 173.722656 290.074219 C 174.945312 289.34375 176.535156 289.773438 177.242188 290.996094 L 185.335938 304.800781 C 186.042969 306.023438 185.636719 307.613281 184.414062 308.320312 C 184.027344 308.558594 183.574219 308.664062 183.125 308.664062 Z M 183.125 308.664062 " fill-opacity="1" fill-rule="nonzero"/><path fill="#ec008c" d="M 150.28125 333.996094 C 148.992188 333.996094 147.875 333.03125 147.726562 331.71875 C 147.554688 330.304688 148.5625 329.035156 149.980469 328.863281 L 165.070312 327.082031 C 166.488281 326.910156 167.753906 327.921875 167.925781 329.335938 C 168.097656 330.753906 167.089844 332.019531 165.671875 332.191406 L 150.582031 333.972656 C 150.496094 333.972656 150.386719 333.996094 150.28125 333.996094 Z M 150.28125 333.996094 " fill-opacity="1" fill-rule="nonzero"/><path fill="#ffffff" d="M 209.335938 283.460938 C 207.917969 283.460938 206.761719 282.304688 206.761719 280.886719 L 206.761719 260.277344 C 206.761719 258.859375 207.917969 257.703125 209.335938 257.703125 C 210.753906 257.703125 211.914062 258.859375 211.914062 260.277344 L 211.914062 280.886719 C 211.914062 282.304688 210.753906 283.460938 209.335938 283.460938 Z M 209.335938 283.460938 " fill-opacity="1" fill-rule="nonzero"/><path fill="#aadff1" d="M 153.136719 56.554688 C 152.664062 56.554688 152.167969 56.425781 151.738281 56.148438 L 140.210938 48.699219 C 139.011719 47.925781 138.667969 46.335938 139.441406 45.132812 C 140.210938 43.933594 141.800781 43.589844 143.003906 44.363281 L 154.53125 51.8125 C 155.734375 52.582031 156.078125 54.171875 155.304688 55.375 C 154.808594 56.125 153.996094 56.554688 153.136719 56.554688 Z M 153.136719 56.554688 " fill-opacity="1" fill-rule="nonzero"/><path fill="#00aeef" d="M 269.164062 74.09375 C 268.648438 74.09375 268.113281 73.945312 267.664062 73.601562 L 258.558594 66.988281 C 257.402344 66.152344 257.144531 64.539062 257.980469 63.382812 C 258.816406 62.222656 260.429688 61.964844 261.585938 62.800781 L 270.6875 69.414062 C 271.847656 70.25 272.105469 71.859375 271.269531 73.019531 C 270.753906 73.730469 269.960938 74.09375 269.164062 74.09375 Z M 269.164062 74.09375 " fill-opacity="1" fill-rule="nonzero"/><path fill="#00a651" d="M 118.359375 79.738281 C 118.335938 79.738281 118.292969 79.738281 118.273438 79.738281 C 116.855469 79.695312 115.738281 78.496094 115.78125 77.078125 L 116.191406 64.304688 C 116.234375 62.886719 117.414062 61.773438 118.851562 61.816406 C 120.269531 61.859375 121.386719 63.058594 121.34375 64.476562 L 120.933594 77.25 C 120.890625 78.625 119.753906 79.738281 118.359375 79.738281 Z M 118.359375 79.738281 " fill-opacity="1" fill-rule="nonzero"/><path fill="#39b54a" d="M 311.542969 123.726562 C 310.789062 123.726562 310.039062 123.402344 309.542969 122.757812 L 299.113281 109.835938 C 298.210938 108.71875 298.382812 107.109375 299.496094 106.207031 C 300.613281 105.308594 302.222656 105.480469 303.125 106.59375 L 313.558594 119.519531 C 314.460938 120.632812 314.289062 122.246094 313.171875 123.144531 C 312.679688 123.53125 312.121094 123.726562 311.542969 123.726562 Z M 311.542969 123.726562 " fill-opacity="1" fill-rule="nonzero"/><path fill="#fff200" d="M 257.164062 116.511719 C 256.714844 116.511719 256.285156 116.40625 255.875 116.167969 C 254.652344 115.460938 254.222656 113.871094 254.953125 112.648438 L 263.648438 97.773438 C 264.355469 96.546875 265.945312 96.117188 267.167969 96.847656 C 268.390625 97.558594 268.820312 99.144531 268.089844 100.371094 L 259.398438 115.246094 C 258.925781 116.039062 258.046875 116.511719 257.164062 116.511719 Z M 257.164062 116.511719 " fill-opacity="1" fill-rule="nonzero"/><path fill="#00aeef" d="M 296.320312 143.839844 C 296.300781 143.839844 296.277344 143.839844 296.257812 143.839844 L 281.894531 143.496094 C 280.476562 143.453125 279.339844 142.273438 279.382812 140.855469 C 279.425781 139.441406 280.605469 138.300781 282.023438 138.34375 L 296.386719 138.6875 C 297.800781 138.730469 298.941406 139.910156 298.898438 141.328125 C 298.855469 142.722656 297.714844 143.839844 296.320312 143.839844 Z M 296.320312 143.839844 " fill-opacity="1" fill-rule="nonzero"/><path fill="#aadff1" d="M 241.386719 144.140625 C 240.355469 144.140625 239.390625 143.519531 238.980469 142.507812 L 233.550781 128.664062 C 233.035156 127.332031 233.679688 125.851562 235.011719 125.3125 C 236.34375 124.800781 237.824219 125.441406 238.359375 126.773438 L 243.789062 140.621094 C 244.304688 141.953125 243.664062 143.433594 242.332031 143.96875 C 242.007812 144.078125 241.6875 144.140625 241.386719 144.140625 Z M 241.386719 144.140625 " fill-opacity="1" fill-rule="nonzero"/><path fill="#39b54a" d="M 125.570312 180.679688 C 125.121094 180.679688 124.648438 180.550781 124.242188 180.292969 L 111.875 172.734375 C 110.652344 171.984375 110.289062 170.417969 111.015625 169.191406 C 111.769531 167.96875 113.335938 167.605469 114.558594 168.335938 L 126.925781 175.890625 C 128.148438 176.640625 128.511719 178.210938 127.78125 179.433594 C 127.289062 180.25 126.429688 180.679688 125.570312 180.679688 Z M 125.570312 180.679688 " fill-opacity="1" fill-rule="nonzero"/><path fill="#00a651" d="M 42.367188 170.546875 C 41.851562 170.546875 41.335938 170.394531 40.882812 170.074219 C 39.726562 169.257812 39.445312 167.648438 40.261719 166.488281 L 47.96875 155.496094 C 48.785156 154.335938 50.394531 154.058594 51.554688 154.875 C 52.710938 155.691406 52.992188 157.300781 52.175781 158.460938 L 44.46875 169.449219 C 43.976562 170.160156 43.160156 170.546875 42.367188 170.546875 Z M 42.367188 170.546875 " fill-opacity="1" fill-rule="nonzero"/><path fill="#aadff1" d="M 133.6875 139.246094 C 132.699219 139.246094 131.734375 138.667969 131.324219 137.679688 L 125.679688 124.542969 C 125.121094 123.230469 125.722656 121.730469 127.03125 121.148438 C 128.339844 120.589844 129.84375 121.191406 130.421875 122.503906 L 136.070312 135.640625 C 136.628906 136.949219 136.027344 138.453125 134.71875 139.03125 C 134.375 139.183594 134.007812 139.246094 133.6875 139.246094 Z M 133.6875 139.246094 " fill-opacity="1" fill-rule="nonzero"/><path fill="#ec008c" d="M 66.839844 124.175781 C 65.957031 124.175781 65.097656 123.726562 64.625 122.910156 L 56.8125 109.816406 C 56.082031 108.589844 56.492188 107.003906 57.714844 106.292969 C 58.9375 105.566406 60.527344 105.972656 61.234375 107.195312 L 69.027344 120.3125 C 69.757812 121.535156 69.351562 123.125 68.125 123.832031 C 67.738281 124.046875 67.289062 124.175781 66.839844 124.175781 Z M 66.839844 124.175781 " fill-opacity="1" fill-rule="nonzero"/><path fill="#fff200" d="M 92.382812 148.027344 C 91.953125 148.027344 91.523438 147.917969 91.117188 147.683594 C 89.871094 146.972656 89.441406 145.40625 90.152344 144.164062 L 97.449219 131.261719 C 98.160156 130.015625 99.726562 129.585938 100.96875 130.292969 C 102.214844 131.003906 102.644531 132.570312 101.9375 133.816406 L 94.636719 146.71875 C 94.164062 147.554688 93.285156 148.027344 92.382812 148.027344 Z M 92.382812 148.027344 " fill-opacity="1" fill-rule="nonzero"/><path fill="#ffffff" d="M 193.535156 117.308594 C 192.269531 117.308594 191.152344 116.363281 190.980469 115.074219 C 190.789062 113.65625 191.796875 112.371094 193.191406 112.175781 L 209.488281 110.03125 C 210.902344 109.835938 212.191406 110.84375 212.382812 112.242188 C 212.578125 113.65625 211.570312 114.945312 210.171875 115.140625 L 193.878906 117.285156 C 193.75 117.285156 193.644531 117.308594 193.535156 117.308594 Z M 193.535156 117.308594 " fill-opacity="1" fill-rule="nonzero"/><path fill="#ec008c" d="M 236.234375 84.890625 C 235.375 84.890625 234.515625 84.460938 234.023438 83.648438 L 225.4375 69.542969 C 224.707031 68.320312 225.070312 66.753906 226.296875 66 C 227.519531 65.269531 229.085938 65.636719 229.835938 66.859375 L 238.425781 80.964844 C 239.152344 82.1875 238.789062 83.753906 237.566406 84.503906 C 237.15625 84.761719 236.683594 84.890625 236.234375 84.890625 Z M 236.234375 84.890625 " fill-opacity="1" fill-rule="nonzero"/><path fill="#00a651" d="M 196.5625 86.289062 C 195.617188 86.289062 194.695312 85.75 194.246094 84.847656 L 187.527344 71.195312 C 186.902344 69.929688 187.417969 68.382812 188.707031 67.738281 C 189.972656 67.117188 191.519531 67.632812 192.164062 68.921875 L 198.882812 82.574219 C 199.503906 83.839844 198.988281 85.386719 197.703125 86.03125 C 197.335938 86.203125 196.949219 86.289062 196.5625 86.289062 Z M 196.5625 86.289062 " fill-opacity="1" fill-rule="nonzero"/><path fill="#fff200" d="M 199.246094 45.929688 C 198.023438 45.929688 196.949219 45.050781 196.714844 43.824219 C 196.457031 42.429688 197.378906 41.078125 198.796875 40.820312 L 215.734375 37.730469 C 217.128906 37.472656 218.480469 38.394531 218.738281 39.8125 C 218.996094 41.207031 218.074219 42.558594 216.65625 42.816406 L 199.71875 45.90625 C 199.570312 45.90625 199.417969 45.929688 199.246094 45.929688 Z M 199.246094 45.929688 " fill-opacity="1" fill-rule="nonzero"/><path fill="#ec008c" d="M 161.65625 111.359375 C 160.992188 111.359375 160.347656 111.101562 159.832031 110.609375 L 149.398438 100.242188 C 148.390625 99.230469 148.390625 97.601562 149.378906 96.589844 C 150.386719 95.582031 152.019531 95.582031 153.027344 96.570312 L 163.460938 106.9375 C 164.46875 107.949219 164.46875 109.578125 163.484375 110.585938 C 162.96875 111.101562 162.324219 111.359375 161.65625 111.359375 Z M 161.65625 111.359375 " fill-opacity="1" fill-rule="nonzero"/><path fill="#f8ad53" d="M 65.550781 62.996094 C 65.550781 62.996094 90.023438 41.742188 101.613281 37.234375 C 113.207031 32.726562 100.96875 50.113281 86.800781 56.554688 C 72.632812 62.996094 55.890625 72.65625 55.890625 74.585938 C 55.890625 76.519531 54.601562 72.65625 65.550781 62.996094 Z M 65.550781 62.996094 " fill-opacity="1" fill-rule="nonzero"/><path fill="#f8ad53" d="M 282.601562 44.320312 C 282.601562 44.320312 291.621094 60.417969 301.921875 62.996094 C 312.226562 65.570312 290.976562 44.964844 282.601562 44.320312 Z M 282.601562 44.320312 " fill-opacity="1" fill-rule="nonzero"/><path fill="#f8ad53" d="M 159.574219 355.398438 C 168.59375 355.398438 191.132812 348.957031 199.503906 353.464844 C 207.875 357.972656 193.707031 365.703125 171.8125 362.480469 C 149.914062 359.261719 144.761719 355.398438 159.574219 355.398438 Z M 159.574219 355.398438 " fill-opacity="1" fill-rule="nonzero"/><path fill="#f8ad53" d="M 335.414062 274.253906 C 335.414062 274.253906 339.277344 258.796875 346.359375 246.558594 C 353.445312 234.324219 354.089844 242.695312 350.226562 249.136719 C 346.359375 255.578125 337.34375 281.335938 333.480469 284.558594 C 329.617188 287.777344 334.769531 278.117188 335.414062 274.253906 Z M 335.414062 274.253906 " fill-opacity="1" fill-rule="nonzero"/><path fill="#f8ad53" d="M 170.523438 15.960938 C 170.523438 15.960938 189.199219 12.742188 196.929688 15.316406 C 204.65625 17.894531 194.351562 23.6875 174.386719 23.6875 C 154.421875 23.6875 149.273438 15.960938 170.523438 15.960938 Z M 170.523438 15.960938 " fill-opacity="1" fill-rule="nonzero"/></svg>