<svg xmlns="http://www.w3.org/2000/svg" xmlns:xlink="http://www.w3.org/1999/xlink" width="500" zoomAndPan="magnify" viewBox="0 0 375 374.999991" height="500" preserveAspectRatio="xMidYMid meet" version="1.0"><defs><clipPath id="16d2a2b275"><path d="M 12 13 L 369.609375 13 L 369.609375 363.910156 L 12 363.910156 Z M 12 13 " clip-rule="nonzero"/></clipPath></defs><g clip-path="url(#16d2a2b275)"><path fill="#c99d57" d="M 190.929688 13.003906 C 92.234375 13.003906 12.25 91.476562 12.25 188.339844 C 12.25 285.199219 92.234375 363.671875 190.929688 363.671875 C 289.625 363.671875 369.609375 285.128906 369.609375 188.339844 C 369.609375 91.550781 289.625 13.003906 190.929688 13.003906 Z M 190.929688 247.140625 C 155.578125 247.140625 126.871094 219.601562 126.871094 185.621094 C 126.871094 151.640625 155.578125 124.097656 190.929688 124.097656 C 226.277344 124.097656 254.988281 151.640625 254.988281 185.621094 C 254.988281 219.601562 226.351562 247.140625 190.929688 247.140625 Z M 190.929688 247.140625 " fill-opacity="1" fill-rule="nonzero"/></g><path fill="#e6c77e" d="M 317.191406 168.738281 C 319.6875 153 329.1875 139.121094 332.613281 123.527344 C 337.042969 103.425781 330.617188 81.679688 317.476562 65.867188 C 304.335938 50.058594 285.054688 40.042969 264.914062 36.324219 C 250.058594 33.535156 232.347656 35.464844 222.421875 47.054688 C 219.136719 50.917969 213.710938 52.132812 209.066406 50.128906 C 186.785156 40.6875 158.292969 46.625 142.507812 65.296875 C 136.011719 72.878906 131.582031 82.179688 124.441406 89.1875 C 104.445312 108.789062 71.59375 104.210938 45.886719 115.15625 C 26.605469 123.382812 11.535156 141.480469 8.320312 162.300781 C 5.109375 183.117188 14.820312 205.648438 32.816406 216.308594 C 38.246094 219.527344 44.316406 221.746094 48.886719 226.109375 C 58.167969 235.050781 58.027344 249.574219 59.882812 262.308594 C 62.453125 280.121094 70.453125 297.574219 84.09375 309.234375 C 97.734375 320.894531 117.441406 325.972656 134.296875 319.894531 C 148.652344 314.742188 160.507812 302.222656 175.71875 301.078125 C 193.929688 299.71875 208.78125 314.816406 225.707031 321.683594 C 242.277344 328.335938 261.058594 326.902344 278.484375 322.828125 C 301.621094 317.390625 325.757812 305.15625 333.972656 282.765625 C 347.328125 245.996094 311.046875 207.367188 317.191406 168.738281 Z M 189.144531 249.859375 C 152.152344 249.859375 122.15625 219.097656 122.15625 181.183594 C 122.15625 143.269531 152.152344 112.511719 189.144531 112.511719 C 226.136719 112.511719 256.128906 143.269531 256.128906 181.183594 C 256.128906 219.097656 226.136719 249.859375 189.144531 249.859375 Z M 189.144531 249.859375 " fill-opacity="1" fill-rule="nonzero"/><path fill="#edd9a8" d="M 51.457031 198.996094 C 50.742188 187.265625 50.027344 175.390625 52.027344 163.800781 C 54.027344 152.210938 58.953125 140.765625 67.808594 133.039062 C 72.238281 129.25 77.878906 126.316406 83.664062 127.101562 C 85.164062 127.316406 86.804688 127.890625 87.519531 129.25 C 87.949219 130.109375 87.949219 131.179688 87.804688 132.183594 C 87.09375 138.046875 83.308594 142.984375 80.234375 147.992188 C 74.453125 157.363281 70.453125 168.378906 72.023438 179.253906 C 72.878906 185.046875 75.238281 190.84375 73.738281 196.492188 C 71.738281 204.148438 61.8125 208.441406 54.882812 204.71875 C 52.957031 203.648438 51.597656 201.574219 51.457031 198.996094 Z M 51.457031 198.996094 " fill-opacity="1" fill-rule="nonzero"/><path fill="#edd9a8" d="M 305.90625 245.210938 C 306.621094 241.992188 304.691406 238.414062 301.765625 236.984375 C 298.765625 235.480469 295.050781 235.980469 292.410156 237.984375 C 288.265625 241.0625 287.195312 246.785156 286.980469 252.003906 C 286.765625 257.226562 287.125 262.664062 284.625 267.242188 C 282.480469 271.25 278.625 273.894531 274.839844 276.257812 C 271.054688 278.617188 267.058594 280.976562 264.414062 284.625 C 261.773438 288.273438 260.914062 293.640625 263.628906 297.214844 C 265.558594 299.648438 268.84375 300.792969 271.984375 300.648438 C 275.125 300.507812 278.054688 299.21875 280.769531 297.71875 C 298.050781 287.988281 301.40625 266.597656 305.90625 245.210938 Z M 305.90625 245.210938 " fill-opacity="1" fill-rule="nonzero"/><path fill="#edd9a8" d="M 310.476562 96.269531 C 308.691406 84.179688 302.050781 72.878906 292.410156 65.367188 C 287.695312 61.71875 282.054688 58.929688 276.125 59.144531 C 274.625 59.214844 273.054688 59.5 271.769531 60.21875 C 269.199219 61.71875 267.84375 64.867188 267.84375 67.871094 C 267.769531 73.523438 271.484375 78.53125 275.339844 82.609375 C 279.195312 86.757812 283.625 90.761719 285.410156 96.128906 C 287.195312 101.421875 286.265625 107.144531 286.480469 112.722656 C 286.695312 118.304688 288.625 124.527344 293.695312 126.746094 C 298.40625 128.820312 304.335938 126.246094 307.050781 121.882812 C 311.476562 115.015625 311.976562 106.144531 310.476562 96.269531 Z M 310.476562 96.269531 " fill-opacity="1" fill-rule="nonzero"/><path fill="#6e4f08" d="M 20.535156 192.917969 C 17.320312 192.917969 14.605469 191.699219 12.679688 189.195312 C 9.964844 185.546875 10.105469 180.613281 13.25 174.601562 C 24.960938 151.710938 46.3125 136.472656 66.953125 121.667969 C 104.875 94.625 142.796875 66.441406 179.714844 37.96875 C 185.644531 33.390625 190.714844 29.097656 192.570312 23.449219 C 193.140625 21.660156 193 20.085938 192.429688 19.726562 C 192.144531 19.511719 191.429688 19.371094 190.285156 19.296875 C 181.929688 18.941406 173.503906 22.589844 165.648438 26.378906 C 121.941406 47.339844 81.449219 74.308594 45.171875 106.5 C 43.671875 107.789062 41.457031 107.644531 40.101562 106.214844 C 38.816406 104.710938 38.957031 102.496094 40.386719 101.136719 C 77.09375 68.445312 118.15625 41.117188 162.503906 19.871094 C 171.289062 15.722656 180.644531 11.644531 190.644531 12.074219 C 192.429688 12.144531 194.714844 12.429688 196.714844 13.863281 C 200.5 16.652344 200.570312 21.730469 199.355469 25.523438 C 196.714844 33.820312 189.429688 39.472656 184.074219 43.550781 C 147.082031 72.09375 109.085938 100.277344 71.167969 127.460938 C 51.242188 141.695312 30.601562 156.433594 19.675781 177.824219 C 18.035156 181.042969 17.605469 183.617188 18.460938 184.832031 C 20.105469 187.050781 25.460938 184.691406 28.601562 182.542969 C 88.019531 142.125 150.367188 102.207031 213.710938 63.9375 C 224.707031 57.285156 233.921875 51.847656 244.132812 47.199219 C 254.058594 42.617188 264.558594 39.042969 275.269531 36.609375 C 282.910156 34.820312 286.339844 37.46875 287.910156 39.902344 C 289.195312 42.046875 289.480469 44.695312 288.625 47.769531 C 287.054688 53.851562 282.910156 58.644531 279.195312 62.648438 C 271.128906 71.304688 262.273438 79.316406 253.703125 87.113281 C 240.203125 99.417969 226.207031 112.082031 215.566406 127.03125 C 214.425781 128.605469 212.210938 129.035156 210.566406 127.890625 C 208.996094 126.746094 208.566406 124.527344 209.710938 122.882812 C 220.78125 107.289062 235.0625 94.339844 248.917969 81.75 C 257.414062 74.023438 266.128906 66.082031 273.984375 57.714844 C 277.269531 54.207031 280.554688 50.34375 281.769531 45.910156 C 282.125 44.621094 282.054688 43.90625 281.839844 43.621094 C 281.554688 43.191406 280.054688 42.761719 276.910156 43.476562 C 266.699219 45.839844 256.703125 49.273438 247.203125 53.636719 C 237.347656 58.140625 228.351562 63.507812 217.496094 70.015625 C 154.148438 108.289062 91.949219 148.136719 32.601562 188.480469 C 28.246094 191.484375 24.105469 192.917969 20.535156 192.917969 Z M 20.535156 192.917969 " fill-opacity="1" fill-rule="nonzero"/><path fill="#6e4f08" d="M 69.882812 298.074219 C 68.167969 298.074219 66.523438 297.933594 64.882812 297.71875 C 58.953125 296.859375 52.957031 294.425781 45.957031 290.0625 C 42.316406 287.84375 38.457031 284.914062 36.957031 280.261719 C 36.03125 277.257812 36.316406 274.253906 36.746094 271.964844 C 39.171875 257.515625 48.457031 243.636719 65.238281 229.613281 C 82.519531 215.164062 101.875 203.863281 122.941406 195.921875 C 124.800781 195.207031 126.871094 196.136719 127.511719 197.996094 C 128.15625 199.855469 127.296875 201.929688 125.441406 202.574219 C 105.160156 210.226562 86.449219 221.171875 69.808594 235.050781 C 54.382812 247.929688 45.886719 260.375 43.742188 273.109375 C 43.457031 274.609375 43.242188 276.542969 43.742188 278.042969 C 44.527344 280.476562 47.171875 282.335938 49.671875 283.910156 C 55.8125 287.703125 60.953125 289.847656 65.882812 290.5625 C 76.164062 292.066406 86.164062 287.417969 92.804688 283.195312 C 98.089844 279.90625 103.089844 275.828125 107.875 271.894531 C 110.871094 269.460938 114.015625 266.886719 117.230469 264.523438 C 130.082031 255.011719 144.367188 247.929688 159.71875 243.492188 C 161.648438 242.921875 163.578125 244.066406 164.148438 245.925781 C 164.71875 247.855469 163.578125 249.789062 161.71875 250.359375 C 147.152344 254.582031 133.652344 261.234375 121.515625 270.246094 C 118.441406 272.535156 115.371094 275.039062 112.371094 277.402344 C 107.375 281.480469 102.230469 285.628906 96.589844 289.203125 C 87.519531 295.070312 78.378906 298.074219 69.882812 298.074219 Z M 69.882812 298.074219 " fill-opacity="1" fill-rule="nonzero"/><path fill="#6e4f08" d="M 144.152344 355.375 C 142.367188 355.375 140.582031 355.160156 138.796875 354.730469 C 135.726562 353.945312 133.296875 352.515625 131.726562 350.511719 C 129.441406 347.648438 127.726562 342.425781 132.296875 333.558594 C 145.292969 308.664062 168.148438 291.351562 190.285156 274.683594 C 231.992188 243.207031 273.769531 210.515625 314.476562 177.75 C 329.828125 165.375 342.398438 154.929688 353.683594 142.410156 C 355.683594 140.195312 358.253906 136.976562 357.609375 134.398438 C 356.894531 131.324219 351.898438 130.109375 347.253906 130.25 C 326.332031 130.894531 306.40625 141.480469 288.910156 150.78125 C 278.199219 156.503906 265.984375 163.015625 258.488281 173.171875 C 257.34375 174.746094 255.058594 175.105469 253.488281 173.960938 C 251.917969 172.816406 251.558594 170.527344 252.703125 168.953125 C 261.199219 157.433594 274.125 150.496094 285.554688 144.488281 C 303.765625 134.757812 324.402344 123.8125 347.039062 123.097656 C 354.324219 122.882812 362.824219 125.316406 364.609375 132.753906 C 365.964844 138.550781 362.394531 143.484375 359.039062 147.203125 C 347.398438 160.082031 334.613281 170.742188 318.976562 183.332031 C 278.199219 216.238281 236.347656 248.859375 194.570312 280.40625 C 173.074219 296.644531 150.863281 313.457031 138.652344 336.917969 C 137.367188 339.351562 135.511719 343.785156 137.296875 346.074219 C 138.082031 347.003906 139.511719 347.578125 140.511719 347.792969 C 148.4375 349.796875 156.792969 344.503906 164.648438 338.566406 C 177.003906 329.121094 189.429688 319.105469 201.425781 309.449219 C 235.707031 281.835938 271.128906 253.222656 311.261719 233.335938 C 323.761719 227.109375 342.257812 219.742188 358.183594 227.324219 C 359.753906 228.113281 361.753906 229.257812 362.824219 231.476562 C 365.039062 236.054688 361.464844 240.558594 360.324219 241.992188 C 331.902344 277.542969 300.980469 311.808594 268.414062 343.714844 C 266.984375 345.074219 264.769531 345.074219 263.34375 343.644531 C 261.984375 342.214844 261.984375 339.996094 263.414062 338.566406 C 295.765625 306.875 326.546875 272.824219 354.824219 237.414062 C 356.539062 235.265625 356.46875 234.480469 356.46875 234.480469 C 356.46875 234.480469 356.253906 234.191406 355.183594 233.691406 C 342.042969 227.398438 325.6875 234.050781 314.476562 239.628906 C 275.054688 259.230469 239.917969 287.558594 205.925781 314.957031 C 193.929688 324.613281 181.503906 334.703125 169.003906 344.144531 C 161.292969 350.082031 153.007812 355.375 144.152344 355.375 Z M 144.152344 355.375 " fill-opacity="1" fill-rule="nonzero"/></svg>