<svg xmlns="http://www.w3.org/2000/svg" xmlns:xlink="http://www.w3.org/1999/xlink" width="500" zoomAndPan="magnify" viewBox="0 0 375 374.999991" height="500" preserveAspectRatio="xMidYMid meet" version="1.0"><defs><clipPath id="627ce13631"><path d="M 10.328125 55.3125 L 365 55.3125 L 365 335.535156 L 10.328125 335.535156 Z M 10.328125 55.3125 " clip-rule="nonzero"/></clipPath><clipPath id="c419e983ff"><path d="M 8.371094 53.355469 L 365.304688 53.355469 L 365.304688 306.988281 L 8.371094 306.988281 Z M 8.371094 53.355469 " clip-rule="nonzero"/></clipPath></defs><g clip-path="url(#627ce13631)"><path fill="#b65f1c" d="M 187.660156 204.636719 C 163.746094 204.636719 144.359375 197.898438 144.359375 189.585938 C 144.359375 181.273438 163.746094 174.53125 187.660156 174.53125 C 211.574219 174.53125 230.960938 181.273438 230.960938 189.585938 C 230.960938 197.898438 211.574219 204.636719 187.660156 204.636719 Z M 187.660156 55.363281 C 79.894531 55.71875 14.421875 117.789062 10.730469 180.117188 C 4.597656 283.625 75.738281 329.949219 179.273438 335.234375 C 253.324219 339.011719 364.957031 308.683594 364.957031 197.007812 C 364.957031 122.914062 301.222656 54.988281 187.660156 55.363281 " fill-opacity="1" fill-rule="nonzero"/></g><path fill="#cd782c" d="M 182.90625 200.632812 C 159.632812 200.632812 140.765625 194.074219 140.765625 185.984375 C 140.765625 177.894531 159.632812 171.335938 182.90625 171.335938 C 206.179688 171.335938 225.046875 177.894531 225.046875 185.984375 C 225.046875 194.074219 206.179688 200.632812 182.90625 200.632812 Z M 182.90625 55.359375 C 78.03125 55.707031 14.3125 116.113281 10.71875 176.773438 C 4.75 277.5 73.984375 322.585938 174.742188 327.726562 C 246.8125 331.40625 355.449219 301.890625 355.449219 193.210938 C 355.449219 121.101562 293.425781 54.996094 182.90625 55.359375 " fill-opacity="1" fill-rule="nonzero"/><g clip-path="url(#c419e983ff)"><path fill="#7fd19a" d="M 187.660156 204.632812 C 172.417969 204.632812 160.03125 202.289062 146.816406 194.804688 C 139.765625 190.816406 131.898438 184.984375 133.167969 175.628906 C 134.300781 167.273438 141.316406 170.996094 146.640625 172.578125 C 159.296875 176.335938 148.925781 164.703125 156.746094 161.835938 C 163 159.542969 164.554688 167.421875 168.105469 169.359375 C 172.410156 171.707031 175.3125 166.300781 177.003906 162.984375 C 177.722656 161.574219 178.808594 160.175781 180.355469 159.847656 C 182.378906 159.425781 184.304688 161.011719 185.367188 162.785156 C 186.433594 164.5625 187.238281 168.019531 189.410156 168.507812 C 194.753906 169.683594 196.695312 160.242188 201.152344 160.074219 C 202.570312 160.019531 203.835938 161.054688 204.523438 162.292969 C 205.214844 163.53125 205.449219 164.960938 205.765625 166.339844 C 206.09375 167.796875 206.589844 169.332031 207.785156 170.226562 C 209.578125 171.578125 212.238281 170.894531 213.992188 169.492188 C 215.746094 168.085938 216.929688 166.109375 218.5 164.5 C 220.066406 162.894531 222.332031 161.617188 224.496094 162.226562 C 227.4375 163.058594 228.425781 166.746094 228.335938 169.804688 C 228.058594 179.171875 229.410156 177.421875 237.546875 177.292969 C 238.554688 177.277344 239.597656 177.421875 240.476562 177.914062 C 241.921875 178.71875 242.773438 180.46875 242.511719 182.097656 C 242.292969 183.441406 241.425781 184.578125 240.546875 185.613281 C 227.535156 200.9375 206.886719 204.632812 187.660156 204.632812 Z M 358.707031 149.703125 C 351.035156 129.226562 336.8125 111.261719 320.457031 96.972656 C 287.792969 68.441406 242.195312 53.363281 188.597656 53.363281 L 187.652344 53.363281 C 136.808594 53.53125 92.304688 67.210938 58.949219 92.917969 C 28.945312 116.039062 10.644531 147.78125 8.734375 180 C 7.277344 204.582031 9.953125 224.320312 21.496094 245.769531 C 26.597656 255.25 37.890625 264.410156 49 258.304688 C 57.160156 253.820312 58.515625 240.984375 69.378906 244.929688 C 89.347656 252.183594 74.007812 281.210938 98.003906 289.746094 C 108.851562 293.605469 121.953125 289.890625 129.15625 280.910156 C 133.261719 275.796875 136.65625 263.957031 144.671875 264.976562 C 159.980469 266.929688 158.15625 299 173.410156 305.421875 C 173.542969 305.480469 173.675781 305.535156 173.808594 305.589844 C 178.808594 307.566406 185 307.675781 188.957031 304.070312 C 200.445312 293.621094 193.503906 269.550781 215.230469 269.609375 C 235.402344 269.660156 228.574219 306.324219 256.164062 299.492188 C 270.152344 296.027344 272.328125 278.746094 277.582031 267.78125 C 280.1875 262.347656 282.910156 256.195312 288.964844 253.855469 C 294.304688 251.789062 298.039062 254.253906 302.5625 256.769531 C 308.871094 260.277344 315.46875 260.839844 321.328125 256.691406 C 327.914062 252.023438 331.875 245.367188 332.292969 237.390625 C 332.742188 228.742188 325.542969 213.816406 334.53125 207.488281 C 343.644531 201.070312 349.640625 216.558594 358.40625 207.679688 C 370.613281 195.3125 363.953125 163.710938 358.707031 149.703125 " fill-opacity="1" fill-rule="nonzero"/></g><path fill="#95d9aa" d="M 183.972656 200.355469 C 169.046875 200.429688 156.875 199.1875 143.933594 191.859375 C 137.03125 187.953125 129.328125 182.242188 130.570312 173.074219 C 131.71875 164.628906 138.976562 168.261719 144.367188 168.664062 C 145.6875 168.761719 147.15625 168.816406 148.179688 167.980469 C 150.316406 166.234375 151.050781 161.65625 153.167969 159.355469 C 154.910156 157.460938 157.496094 156.152344 160.039062 156.5625 C 166.523438 157.605469 165.457031 168.921875 172.414062 164.578125 C 176.289062 162.160156 178.316406 155.597656 183.691406 155.863281 C 185.589844 155.957031 186.796875 157.902344 187.5 159.667969 C 188.203125 161.433594 188.925781 163.460938 190.675781 164.210938 C 194.425781 165.820312 196.550781 158.582031 199.253906 157.457031 C 204.40625 155.304688 205.273438 161.671875 207.707031 164.433594 C 210.664062 167.789062 212.84375 164.835938 215.367188 162.597656 C 219.347656 159.070312 231.4375 155.5625 232.25 163.984375 C 232.4375 165.949219 231.636719 167.886719 231.671875 169.863281 C 231.777344 175.949219 236.03125 172.5625 237.828125 175.644531 C 239.0625 177.757812 234.421875 183.640625 230.960938 185.984375 C 225.191406 189.894531 212.855469 200.207031 183.972656 200.355469 Z M 356.34375 146.992188 C 348.832031 126.945312 334.910156 109.347656 318.890625 95.359375 C 286.90625 67.425781 239.003906 52.980469 184.84375 53.363281 L 183.917969 53.363281 C 134.136719 53.527344 90.554688 66.921875 57.894531 92.09375 C 28.515625 114.734375 10.597656 145.8125 8.726562 177.359375 C 7.925781 190.851562 8.359375 204.488281 11.703125 217.640625 C 14.914062 230.289062 19.453125 243.105469 32.917969 247.710938 C 38.15625 249.503906 44.945312 250.363281 50.195312 248.070312 C 51.175781 247.644531 52.058594 247.011719 52.929688 246.386719 C 59.667969 241.554688 64.972656 235.640625 73.746094 238.828125 C 85.050781 242.933594 85.214844 258.382812 92.699219 266.617188 C 98.539062 273.035156 106.457031 274.460938 114.722656 274.257812 C 120.804688 274.109375 126.214844 270.785156 130.539062 266.738281 C 133.953125 263.542969 137.046875 257.054688 142.539062 257.753906 C 149.769531 258.675781 156.074219 263.003906 159.0625 269.777344 C 162.394531 277.328125 164.964844 284.789062 174.433594 286.671875 C 178.535156 287.492188 182.863281 286.636719 186.601562 284.757812 C 196.785156 279.632812 199.546875 268.605469 210.925781 265.105469 C 216.9375 263.25 223.34375 266.171875 227.085938 271 C 230.992188 276.039062 234.847656 279.558594 241.441406 281.273438 C 243.65625 281.851562 245.957031 282.066406 248.246094 282.136719 C 261.285156 282.542969 267.222656 273.492188 272.191406 262.863281 C 274.660156 257.589844 277.785156 250.832031 283.15625 247.898438 C 293.386719 242.308594 307.65625 246.804688 316.488281 238.792969 C 321.546875 234.207031 324.492188 225.820312 325.195312 219.152344 C 325.90625 212.378906 325.769531 205.121094 331.964844 200.757812 C 337.144531 197.109375 342.953125 202.722656 348.894531 200.78125 C 352.546875 199.589844 355.660156 197.175781 358.550781 194.644531 C 370.269531 184.378906 360.949219 159.292969 356.34375 146.992188 " fill-opacity="1" fill-rule="nonzero"/><path fill="#c5ead0" d="M 134.039062 145.605469 C 133.019531 146.171875 132.015625 146.769531 131.027344 147.394531 C 117.046875 156.222656 102.714844 171.3125 116.851562 187.304688 C 128.117188 200.050781 146.082031 204.335938 163.003906 206.117188 C 181.59375 208.078125 201.742188 208.6875 219.707031 202.773438 C 228.3125 199.941406 236.726562 195.226562 241.570312 187.308594 C 246.28125 179.605469 254.65625 163.84375 250.390625 154.960938 C 246.726562 147.332031 237.566406 142.71875 230.5 138.949219 C 220.824219 133.792969 213.605469 132.222656 202.292969 132.003906 C 192.140625 131.804688 181.207031 131.601562 171.261719 133.679688 C 158.59375 136.328125 145.453125 139.246094 134.039062 145.605469 Z M 204.625 252.734375 C 181.550781 254.238281 144.054688 251.890625 117.136719 245.527344 C 96.363281 240.613281 47.613281 215.085938 40.550781 206.730469 C 13.03125 174.179688 38.757812 120.980469 64.757812 100.941406 C 93.910156 78.472656 134.269531 60.945312 179.625 60.792969 L 194.046875 61.734375 C 243.871094 61.734375 284.332031 79.3125 311.304688 102.867188 C 326.429688 116.078125 336.882812 124.734375 341.777344 140.332031 C 346.375 154.988281 344.089844 172.234375 337.792969 183.167969 C 332.917969 191.632812 308.742188 215.664062 298.890625 224.066406 C 289.691406 231.917969 273.195312 237.339844 264.289062 241.238281 C 257.167969 244.355469 218.582031 251.820312 204.625 252.734375 " fill-opacity="1" fill-rule="nonzero"/><path fill="#e1f4e6" d="M 36.859375 174.75 C 67.144531 58.261719 244.585938 60.792969 304.730469 110.378906 C 264.789062 44.578125 45.828125 39.292969 36.859375 174.75 " fill-opacity="1" fill-rule="nonzero"/><path fill="#e1f4e6" d="M 254.613281 155.855469 C 261.824219 172.828125 263.886719 198.183594 230.960938 214.144531 C 199.976562 229.164062 142.128906 223.539062 117.136719 195.449219 C 164.707031 222.011719 256.800781 224.707031 254.613281 155.855469 " fill-opacity="1" fill-rule="nonzero"/><path fill="#e1f4e6" d="M 111.03125 234.832031 C 186.835938 262.175781 320.703125 251.613281 336.382812 155.855469 C 311.304688 214.144531 252.101562 256.894531 111.03125 234.832031 " fill-opacity="1" fill-rule="nonzero"/><path fill="#593016" d="M 260.492188 265.875 C 264.25 262.386719 268.246094 258.761719 272.46875 254.988281 C 274.578125 253.105469 276.746094 251.179688 278.957031 249.210938 C 281.1875 247.269531 283.464844 245.28125 285.789062 243.25 C 290.472656 239.210938 295.339844 235.082031 300.503906 230.8125 C 303.054688 228.695312 305.714844 226.492188 308.359375 224.242188 C 311 221.976562 313.667969 219.648438 316.347656 217.25 C 327.101562 207.671875 338.128906 197.039062 349.28125 185.304688 C 350.652344 183.828125 352.023438 182.398438 353.457031 180.816406 C 354.855469 179.265625 356.230469 177.679688 357.578125 176.046875 C 359.667969 173.515625 361.707031 170.890625 363.644531 168.089844 C 362.863281 163.824219 361.878906 159.773438 360.84375 156.214844 C 360.113281 157.867188 359.1875 159.539062 358.191406 161.175781 C 356.128906 164.550781 353.75 167.8125 351.273438 170.945312 C 350.035156 172.507812 348.761719 174.042969 347.476562 175.535156 C 346.210938 176.992188 344.820312 178.507812 343.488281 180 C 332.847656 191.824219 322.226562 202.636719 311.875 212.375 C 306.695312 217.257812 301.605469 221.851562 296.605469 226.289062 C 291.613281 230.714844 286.800781 235.09375 282.253906 239.304688 C 273.128906 247.726562 264.980469 255.707031 257.726562 263.015625 C 248.050781 272.742188 240.023438 281.320312 233.582031 288.402344 C 233.96875 289.132812 234.371094 289.847656 234.78125 290.546875 C 236.621094 288.714844 238.578125 286.78125 240.660156 284.742188 C 246.375 279.1875 252.972656 272.839844 260.492188 265.875 " fill-opacity="1" fill-rule="nonzero"/><path fill="#593016" d="M 13.9375 185.285156 C 14.429688 184.511719 14.914062 183.710938 15.441406 182.914062 C 15.972656 182.121094 16.511719 181.3125 17.0625 180.488281 C 21.421875 173.867188 26.777344 166.492188 33.15625 158.566406 C 39.535156 150.644531 46.988281 142.191406 55.648438 133.554688 C 57.8125 131.390625 60.082031 129.246094 62.363281 127.035156 C 63.535156 125.960938 64.71875 124.875 65.914062 123.78125 C 67.109375 122.691406 68.304688 121.570312 69.5625 120.503906 C 72.054688 118.34375 74.558594 116.105469 77.214844 113.957031 C 78.535156 112.875 79.839844 111.753906 81.207031 110.679688 C 82.570312 109.605469 83.949219 108.523438 85.335938 107.433594 C 107.609375 90.109375 135.011719 73.410156 167.035156 59.816406 C 169.042969 58.984375 171.042969 58.101562 173.085938 57.300781 C 175.128906 56.488281 177.179688 55.675781 179.242188 54.859375 C 180.519531 54.378906 181.800781 53.898438 183.089844 53.417969 C 172.117188 53.632812 161.882812 53.964844 151.574219 55.433594 C 139.683594 61.046875 128.046875 67.625 117.582031 73.988281 C 110.652344 78.246094 104.007812 82.574219 97.746094 87.070312 C 94.585938 89.273438 91.582031 91.597656 88.582031 93.832031 C 87.097656 94.964844 85.652344 96.136719 84.207031 97.269531 C 82.761719 98.414062 81.316406 99.53125 79.941406 100.714844 C 68.78125 109.972656 58.917969 119.324219 50.457031 128.570312 C 41.976562 137.796875 34.789062 146.796875 28.75 155.230469 C 25.722656 159.4375 23.003906 163.523438 20.507812 167.398438 C 19.300781 169.363281 18.128906 171.265625 16.996094 173.101562 C 15.855469 174.9375 14.859375 176.769531 13.84375 178.5 C 11.789062 181.953125 10.117188 185.277344 8.507812 188.269531 C 8.472656 188.34375 8.4375 188.414062 8.402344 188.488281 C 8.367188 190.433594 8.367188 192.355469 8.398438 194.25 C 9.25 192.820312 10.144531 191.320312 11.109375 189.738281 C 12.011719 188.316406 12.953125 186.832031 13.9375 185.285156 " fill-opacity="1" fill-rule="nonzero"/><path fill="#593016" d="M 342.839844 146.101562 C 338.5625 147.945312 334.398438 149.988281 330.265625 152.128906 C 326.132812 154.273438 322.035156 156.53125 317.949219 158.8125 C 315.921875 159.945312 313.84375 161.125 311.90625 162.152344 C 309.816406 163.253906 307.714844 164.359375 305.609375 165.472656 C 288.699219 174.515625 271.863281 184.847656 254.730469 195.519531 C 246.160156 200.847656 237.496094 206.242188 228.671875 211.558594 C 226.46875 212.882812 224.253906 214.226562 222.035156 215.523438 C 219.816406 216.832031 217.597656 218.148438 215.3125 219.449219 C 214.175781 220.101562 213.042969 220.757812 211.902344 221.414062 C 210.78125 222.046875 209.65625 222.679688 208.53125 223.316406 C 206.265625 224.574219 204 225.808594 201.714844 226.972656 C 197.148438 229.324219 192.503906 231.382812 187.773438 233.003906 C 185.40625 233.78125 183.019531 234.492188 180.617188 234.972656 C 178.230469 235.511719 175.785156 235.792969 173.421875 235.964844 C 172.28125 235.988281 171.269531 236.089844 169.8125 236.007812 L 168.796875 235.980469 L 168.289062 235.960938 C 168.066406 235.960938 168.332031 235.957031 168.027344 235.9375 C 167.496094 235.867188 166.921875 235.855469 166.421875 235.753906 C 164.371094 235.4375 162.6875 234.738281 162.066406 234.019531 C 161.730469 233.660156 161.515625 233.308594 161.335938 232.761719 C 161.160156 232.222656 161.085938 231.453125 161.144531 230.554688 C 161.199219 229.660156 161.351562 228.660156 161.652344 227.609375 C 161.929688 226.5625 162.300781 225.480469 162.761719 224.390625 C 163.65625 222.210938 164.84375 220.019531 166.175781 217.902344 C 166.847656 216.847656 167.546875 215.800781 168.296875 214.796875 C 168.660156 214.28125 169.050781 213.796875 169.429688 213.300781 C 169.820312 212.816406 170.21875 212.324219 170.578125 211.910156 C 170.882812 211.546875 171.535156 210.832031 171.847656 210.507812 L 173.207031 209.09375 C 174.140625 208.167969 175.058594 207.230469 176.035156 206.335938 C 176.773438 205.640625 182.140625 201.035156 182.90625 200.359375 C 176.394531 200.359375 172.28125 200.179688 167.441406 199.542969 L 163.832031 203.027344 C 163.195312 203.714844 162.914062 204.027344 162.320312 204.722656 C 161.773438 205.355469 161.308594 205.949219 160.832031 206.542969 C 160.371094 207.148438 159.902344 207.746094 159.464844 208.363281 C 158.570312 209.585938 157.738281 210.84375 156.933594 212.121094 C 155.347656 214.691406 153.898438 217.367188 152.71875 220.28125 C 152.121094 221.734375 151.597656 223.253906 151.179688 224.859375 C 150.75 226.453125 150.453125 228.175781 150.355469 230.011719 C 150.261719 231.84375 150.382812 233.847656 151.039062 235.921875 C 151.664062 237.984375 152.875 240.042969 154.460938 241.613281 C 154.867188 241.984375 155.265625 242.390625 155.695312 242.714844 C 156.121094 243.027344 156.558594 243.332031 156.996094 243.628906 C 157.4375 243.910156 157.878906 244.121094 158.324219 244.359375 L 158.996094 244.699219 L 159.65625 244.960938 C 160.097656 245.132812 160.542969 245.304688 160.984375 245.460938 L 162.273438 245.8125 C 163.152344 246.074219 163.964844 246.167969 164.804688 246.324219 C 165.644531 246.472656 166.429688 246.5 167.246094 246.589844 C 167.28125 246.597656 167.882812 246.640625 168 246.636719 L 168.507812 246.648438 L 169.523438 246.675781 C 170.777344 246.742188 172.46875 246.652344 174.027344 246.59375 C 177.054688 246.363281 179.976562 245.984375 182.835938 245.332031 C 185.707031 244.734375 188.476562 243.894531 191.183594 242.984375 C 196.570312 241.105469 201.667969 238.789062 206.5 236.257812 C 208.929688 235.003906 211.296875 233.699219 213.628906 232.382812 C 214.792969 231.71875 215.953125 231.050781 217.113281 230.386719 C 218.246094 229.726562 219.382812 229.0625 220.511719 228.402344 C 222.769531 227.097656 225.039062 225.738281 227.296875 224.386719 C 229.5625 223.042969 231.777344 221.675781 234.003906 220.324219 C 242.882812 214.902344 251.546875 209.429688 260.078125 204.054688 C 277.140625 193.304688 293.695312 182.945312 310.1875 173.921875 C 312.269531 172.796875 314.339844 171.679688 316.398438 170.566406 C 318.605469 169.355469 320.582031 168.191406 322.613281 167.023438 C 326.640625 164.703125 330.617188 162.445312 334.589844 160.320312 C 338.558594 158.191406 342.523438 156.191406 346.476562 154.421875 C 348.449219 153.542969 350.421875 152.726562 352.375 152.019531 C 354.320312 151.316406 356.269531 150.710938 358.066406 150.367188 C 358.347656 150.320312 358.625 150.273438 358.898438 150.234375 C 358.832031 150.058594 358.769531 149.871094 358.707031 149.703125 C 357.710938 147.054688 356.605469 144.449219 355.402344 141.886719 C 353.296875 142.324219 351.328125 142.910156 349.410156 143.5625 C 347.164062 144.332031 344.988281 145.195312 342.839844 146.101562 " fill-opacity="1" fill-rule="nonzero"/><path fill="#593016" d="M 293.320312 82.253906 C 293.3125 82.222656 293.316406 82.21875 293.320312 82.253906 Z M 200.253906 62.195312 C 196.550781 65.21875 192.6875 68.089844 188.640625 71.230469 C 187.621094 72.042969 186.589844 72.828125 185.386719 73.972656 C 184.484375 74.828125 183.582031 75.6875 182.679688 76.546875 C 180.914062 78.195312 179.097656 79.855469 177.242188 81.496094 C 162.417969 94.617188 145.640625 106.636719 128.617188 119.320312 C 120.089844 125.652344 111.480469 132.195312 103.027344 139.195312 C 98.789062 142.679688 94.632812 146.339844 90.511719 150.089844 C 86.449219 153.910156 82.386719 157.789062 78.550781 161.960938 C 74.65625 166.0625 70.992188 170.445312 67.421875 174.933594 L 64.839844 178.386719 L 63.546875 180.117188 L 62.304688 181.875 C 60.613281 184.324219 59.015625 186.785156 57.53125 189.457031 C 56.046875 192.109375 54.707031 194.925781 53.613281 197.914062 C 53.074219 199.410156 52.585938 200.941406 52.203125 202.523438 C 51.996094 203.304688 51.835938 204.109375 51.679688 204.910156 C 51.652344 205.023438 51.574219 205.4375 51.554688 205.578125 L 51.472656 206.097656 C 51.414062 206.484375 51.34375 207.03125 51.292969 207.46875 C 51.117188 209.222656 51.078125 211.046875 51.289062 212.957031 C 51.515625 214.871094 51.996094 216.902344 52.957031 218.914062 C 53.464844 219.914062 54.035156 220.910156 54.792969 221.820312 C 55.144531 222.289062 55.566406 222.707031 55.976562 223.132812 C 56.644531 223.769531 56.390625 223.507812 56.644531 223.742188 L 57.046875 224.085938 C 57.1875 224.210938 57.550781 224.476562 57.800781 224.65625 C 58.074219 224.855469 58.355469 225.046875 58.640625 225.234375 C 59.152344 225.53125 59.652344 225.816406 60.175781 226.070312 C 61.238281 226.554688 62.34375 226.945312 63.449219 227.175781 C 65.667969 227.65625 67.816406 227.628906 69.742188 227.367188 C 71.675781 227.097656 73.425781 226.609375 75.054688 226.027344 C 78.304688 224.851562 81.117188 223.328125 83.765625 221.734375 C 86.402344 220.140625 88.871094 218.425781 91.199219 216.8125 L 94.707031 214.417969 C 95.871094 213.621094 97.164062 212.699219 98.347656 211.84375 C 107.925781 204.914062 116.710938 197.199219 125.449219 189.703125 C 128.316406 187.238281 131.210938 184.792969 134.117188 182.355469 C 133.292969 180.28125 133.621094 178.34375 134.003906 175.777344 C 135.058594 168.664062 141.019531 171.234375 146.292969 172.871094 C 148.6875 170.933594 151.183594 168.371094 153.597656 166.453125 C 153.699219 164.464844 154.371094 162.988281 156.953125 162.042969 C 158.199219 161.585938 159.234375 161.375 160.160156 161.601562 C 166.605469 156.585938 173.066406 151.382812 179.671875 146.542969 C 189.042969 139.695312 198.5625 133.015625 208.238281 126.566406 L 215.566406 121.710938 C 217.992188 120.105469 220.519531 118.375 222.929688 116.71875 C 227.792969 113.378906 232.585938 110.023438 237.398438 106.792969 C 247.019531 100.320312 256.734375 94.234375 266.945312 89.667969 C 272.042969 87.390625 277.234375 85.40625 282.546875 84.039062 C 282.546875 84.039062 288.792969 82.542969 289.941406 82.457031 C 291.082031 82.375 293.023438 82.230469 293.289062 82.777344 C 293.613281 83.25 293.015625 84.03125 292.699219 84.816406 C 292.316406 85.8125 291.761719 86.902344 291.144531 87.988281 C 290.527344 89.09375 289.847656 90.121094 289.019531 91.394531 C 285.957031 96.078125 282.613281 100.644531 279.078125 104.996094 C 275.53125 109.347656 271.777344 113.519531 267.808594 117.460938 C 266.828125 118.453125 265.8125 119.414062 264.804688 120.382812 C 263.78125 121.332031 262.773438 122.277344 261.683594 123.261719 C 259.550781 125.203125 257.417969 127.144531 255.289062 129.082031 C 239.570312 143.28125 223.355469 157.230469 206.730469 169.394531 C 208.449219 172.828125 212.300781 171.089844 214.058594 169.6875 C 215.808594 168.285156 217.191406 166.113281 218.753906 164.507812 C 220.324219 162.902344 221.628906 162.320312 223.789062 162.929688 C 226 163.554688 227.117188 165.867188 227.496094 168.234375 C 239.398438 158.847656 251.734375 147.878906 263.066406 137.699219 C 265.214844 135.757812 267.367188 133.8125 269.523438 131.867188 C 270.582031 130.914062 271.695312 129.886719 272.796875 128.867188 C 273.882812 127.832031 274.976562 126.800781 276.035156 125.738281 C 280.3125 121.523438 284.355469 117.0625 288.175781 112.414062 C 291.992188 107.746094 295.558594 102.910156 298.898438 97.84375 C 299.664062 96.683594 300.601562 95.277344 301.410156 93.835938 C 302.238281 92.386719 303.03125 90.878906 303.710938 89.15625 C 304.214844 87.851562 304.695312 86.460938 304.964844 84.789062 C 297.652344 79.726562 289.828125 75.542969 281.769531 71.886719 C 281.382812 71.980469 280.667969 72.199219 280.667969 72.199219 C 280.554688 72.230469 280.238281 72.300781 280.058594 72.355469 L 279.5 72.511719 C 273.453125 74.0625 267.652344 76.277344 262.046875 78.769531 C 256.449219 81.285156 251.050781 84.136719 245.859375 87.207031 C 240.664062 90.28125 235.636719 93.53125 230.703125 96.835938 C 225.765625 100.140625 220.9375 103.511719 216.121094 106.808594 C 213.691406 108.46875 211.375 110.054688 208.910156 111.683594 L 201.5625 116.535156 C 191.710938 123.078125 182.027344 129.84375 172.535156 136.816406 C 153.542969 150.757812 135.238281 165.457031 117.625 180.613281 C 108.84375 188.179688 100.285156 195.652344 91.324219 202.191406 C 90.191406 203.015625 89.15625 203.761719 87.964844 204.582031 L 84.402344 207.035156 C 82.042969 208.683594 79.824219 210.226562 77.589844 211.589844 C 75.371094 212.941406 73.136719 214.121094 71.042969 214.878906 C 68.957031 215.65625 67.042969 215.886719 65.960938 215.628906 C 65.675781 215.578125 65.449219 215.480469 65.214844 215.390625 C 65.105469 215.332031 64.996094 215.261719 64.886719 215.21875 C 64.878906 215.203125 64.871094 215.195312 64.855469 215.191406 C 64.820312 215.164062 64.878906 215.25 64.75 215.144531 L 64.347656 214.796875 C 64.34375 214.796875 64.28125 214.742188 64.214844 214.683594 C 64.148438 214.597656 64.054688 214.539062 63.996094 214.4375 C 63.835938 214.269531 63.714844 214.023438 63.570312 213.777344 C 63.316406 213.238281 63.101562 212.496094 62.992188 211.617188 C 62.894531 210.726562 62.894531 209.722656 63 208.675781 L 63.085938 207.957031 L 63.167969 207.4375 C 63.199219 207.230469 63.191406 207.296875 63.234375 207.066406 C 63.351562 206.492188 63.457031 205.914062 63.609375 205.34375 C 63.882812 204.191406 64.246094 203.046875 64.652344 201.902344 C 65.476562 199.621094 66.53125 197.359375 67.769531 195.132812 C 68.988281 192.914062 70.417969 190.6875 71.882812 188.550781 L 73.046875 186.898438 L 74.242188 185.285156 L 76.636719 182.058594 C 79.957031 177.859375 83.367188 173.742188 87.039062 169.851562 C 90.640625 165.910156 94.480469 162.183594 98.34375 158.511719 C 102.265625 154.890625 106.238281 151.34375 110.332031 147.9375 C 118.484375 141.09375 126.894531 134.621094 135.332031 128.269531 C 152.179688 115.535156 169.09375 103.277344 184.425781 89.546875 C 186.339844 87.835938 188.21875 86.09375 190.109375 84.308594 C 191.011719 83.4375 191.914062 82.566406 192.816406 81.695312 C 193.414062 81.109375 194.34375 80.359375 195.273438 79.621094 C 199.0625 76.632812 203.109375 73.589844 206.980469 70.386719 C 210.863281 67.160156 214.675781 63.851562 218.234375 59.828125 C 219.117188 58.8125 219.988281 57.742188 220.820312 56.554688 C 221.125 56.113281 221.292969 55.863281 221.589844 55.382812 C 217.539062 54.871094 213.570312 54.503906 209.402344 54.183594 C 206.726562 57.023438 203.535156 59.515625 200.253906 62.195312 " fill-opacity="1" fill-rule="nonzero"/><path fill="#ae561d" d="M 350.734375 177.871094 C 352.007812 176.386719 353.242188 174.890625 354.40625 173.421875 C 356.261719 171.074219 360.855469 163.773438 362.289062 161.675781 C 362.316406 161.808594 362.613281 163.046875 362.636719 163.175781 C 361.195312 165.1875 356.34375 171.269531 354.492188 173.507812 C 353.308594 174.941406 352.042969 176.410156 350.734375 177.871094 " fill-opacity="1" fill-rule="nonzero"/><path fill="#ae561d" d="M 67.632812 116.890625 C 72.320312 112.484375 77.285156 108.105469 82.496094 103.785156 C 83.625 102.816406 84.75 101.929688 85.941406 100.988281 L 86.683594 100.402344 C 87.1875 100.007812 87.703125 99.597656 88.21875 99.1875 C 89.140625 98.457031 90.0625 97.726562 91.007812 97.007812 C 91.769531 96.441406 92.566406 95.839844 93.367188 95.238281 C 95.53125 93.609375 97.765625 91.921875 100.03125 90.347656 C 105.796875 86.207031 112.207031 81.980469 119.675781 77.390625 C 130.046875 71.078125 151.089844 59.613281 162.367188 54.269531 C 164.789062 54.042969 166.511719 54.015625 168.980469 53.855469 C 141.253906 66.21875 105.664062 86.5625 82.878906 104.28125 L 78.734375 107.539062 C 77.824219 108.257812 76.941406 108.992188 76.0625 109.726562 C 75.601562 110.109375 75.140625 110.492188 74.679688 110.871094 C 72.628906 112.527344 70.660156 114.25 68.753906 115.914062 C 68.378906 116.238281 68.003906 116.566406 67.632812 116.890625 " fill-opacity="1" fill-rule="nonzero"/><path fill="#ae561d" d="M 170.574219 242.707031 C 170.277344 242.707031 170 242.699219 169.742188 242.6875 L 168.007812 242.644531 C 167.917969 242.640625 167.667969 242.621094 167.667969 242.621094 C 167.375 242.585938 167.085938 242.5625 166.800781 242.539062 C 166.3125 242.496094 165.894531 242.460938 165.503906 242.390625 C 165.285156 242.351562 165.035156 242.308594 164.785156 242.265625 C 164.265625 242.183594 163.816406 242.105469 163.414062 241.984375 L 162.179688 241.648438 C 161.847656 241.527344 161.511719 241.398438 161.179688 241.269531 L 160.636719 241.054688 L 160.148438 240.808594 L 159.796875 240.625 C 159.554688 240.5 159.347656 240.390625 159.191406 240.292969 C 158.808594 240.03125 158.429688 239.765625 158.054688 239.492188 C 157.949219 239.410156 157.707031 239.183594 157.476562 238.964844 L 157.242188 238.742188 C 156.171875 237.679688 155.308594 236.230469 154.859375 234.761719 C 154.425781 233.378906 154.261719 231.90625 154.347656 230.21875 C 154.421875 228.769531 154.65625 227.316406 155.035156 225.902344 C 155.402344 224.5 155.847656 223.171875 156.410156 221.804688 C 157.414062 219.335938 158.65625 216.933594 160.332031 214.222656 C 161.183594 212.867188 161.9375 211.75 162.6875 210.722656 C 163.035156 210.230469 163.363281 209.804688 163.691406 209.378906 L 163.980469 209.003906 L 164.117188 208.828125 C 164.507812 208.339844 164.898438 207.851562 165.347656 207.332031 C 165.636719 206.992188 165.839844 206.753906 166.054688 206.515625 C 171.460938 200.632812 175.101562 201.058594 169.488281 207.199219 L 168.964844 207.742188 C 168.636719 208.082031 167.941406 208.839844 167.535156 209.320312 C 167.195312 209.714844 166.824219 210.167969 166.457031 210.625 L 166.257812 210.875 L 165.953125 211.265625 C 165.652344 211.65625 165.351562 212.042969 165.066406 212.445312 C 164.359375 213.394531 163.640625 214.449219 162.804688 215.757812 C 161.230469 218.265625 159.972656 220.652344 159.0625 222.875 C 158.550781 224.09375 158.113281 225.351562 157.789062 226.582031 C 157.453125 227.757812 157.234375 229.035156 157.15625 230.308594 C 157.0625 231.714844 157.195312 232.972656 157.550781 234.03125 C 157.871094 235.039062 158.375 235.90625 159.105469 236.703125 C 160.847656 238.652344 163.960938 239.40625 165.730469 239.6875 C 166.222656 239.777344 166.679688 239.820312 167.054688 239.851562 C 167.210938 239.863281 167.363281 239.875 167.511719 239.894531 L 167.65625 239.914062 C 167.828125 239.9375 168.007812 239.953125 168.191406 239.957031 L 169.644531 240 C 170.105469 240.023438 170.535156 240.03125 170.9375 240.03125 C 171.539062 240.03125 172.082031 240.011719 172.621094 239.988281 C 172.914062 239.976562 173.207031 239.964844 173.507812 239.957031 L 173.609375 239.957031 L 173.710938 239.949219 C 176.652344 239.734375 179.183594 239.386719 181.449219 238.875 C 184.28125 238.308594 186.980469 237.46875 189.019531 236.800781 C 193.757812 235.171875 198.496094 233.125 203.546875 230.519531 C 205.554688 229.496094 207.695312 228.347656 210.472656 226.804688 L 213.867188 224.890625 L 217.308594 222.910156 C 219.414062 221.707031 221.496094 220.476562 223.511719 219.289062 L 224.066406 218.960938 C 225.6875 218.015625 227.324219 217.03125 228.957031 216.050781 L 230.726562 214.984375 C 238.957031 210.023438 247.121094 204.953125 255.011719 200.042969 L 256.839844 198.910156 C 273.0625 188.804688 290.332031 178.171875 307.492188 168.992188 L 313.769531 165.6875 C 315.261719 164.894531 316.828125 164.015625 318.347656 163.164062 L 319.890625 162.304688 C 323.5 160.289062 327.765625 157.925781 332.105469 155.675781 C 336.761719 153.257812 340.671875 151.382812 344.417969 149.769531 C 346.707031 148.800781 348.769531 148.003906 350.703125 147.339844 C 351.558594 147.050781 356.160156 145.507812 356.925781 145.28125 C 357.050781 145.570312 357.238281 146.023438 357.359375 146.308594 C 356.574219 146.550781 351.886719 147.949219 351.011719 148.265625 C 349.121094 148.949219 347.105469 149.769531 344.851562 150.773438 C 341.117188 152.445312 337.144531 154.417969 332.695312 156.800781 C 328.410156 159.097656 324.183594 161.511719 320.617188 163.566406 L 318.964844 164.519531 C 317.53125 165.347656 316.046875 166.203125 314.476562 167.0625 L 308.289062 170.410156 C 292.179688 179.222656 275.960938 189.332031 257.945312 200.675781 L 256.085938 201.847656 C 248.242188 206.792969 240.128906 211.902344 231.917969 216.921875 L 230.058594 218.054688 C 228.46875 219.019531 226.875 219.992188 225.253906 220.953125 L 224.644531 221.316406 C 222.625 222.523438 220.542969 223.773438 218.507812 224.949219 L 215.097656 226.941406 L 211.640625 228.917969 C 209.777344 229.96875 207.277344 231.363281 204.667969 232.710938 C 199.496094 235.417969 194.660156 237.539062 189.863281 239.214844 C 186.773438 240.253906 184.339844 240.941406 182.023438 241.421875 L 181.945312 241.441406 C 179.53125 241.992188 176.867188 242.375 173.792969 242.605469 L 173.292969 242.625 C 172.355469 242.664062 171.386719 242.707031 170.574219 242.707031 " fill-opacity="1" fill-rule="nonzero"/><path fill="#ae561d" d="M 265.519531 86.207031 C 271.441406 83.5625 276.734375 81.65625 281.699219 80.371094 L 282.109375 80.253906 C 282.304688 80.195312 282.414062 80.167969 282.578125 80.128906 L 283.8125 79.828125 L 284.421875 79.691406 C 284.902344 79.585938 286.488281 79.28125 286.957031 79.199219 C 287.910156 79.027344 291.910156 78.3125 293.949219 77.957031 C 292.0625 76.980469 290.171875 75.925781 288.039062 74.863281 C 288.039062 74.863281 281.488281 76.34375 281.429688 76.359375 L 280.699219 76.566406 C 275.519531 77.894531 270.015625 79.871094 263.890625 82.597656 C 258.734375 84.914062 253.417969 87.679688 248.097656 90.828125 C 243.574219 93.507812 238.816406 96.527344 233.132812 100.339844 C 229.800781 102.570312 226.460938 104.867188 223.234375 107.09375 C 221.679688 108.160156 220.132812 109.226562 218.582031 110.289062 L 218.136719 110.59375 C 215.835938 112.167969 213.660156 113.652344 211.316406 115.199219 L 203.976562 120.046875 C 194.21875 126.527344 184.507812 133.316406 175.105469 140.222656 C 163.84375 148.484375 152.441406 157.3125 141.011719 166.605469 C 139.617188 167.824219 132.566406 173.597656 129.425781 176.183594 C 126.425781 178.699219 123.429688 181.25 120.4375 183.824219 L 118.457031 185.53125 C 110.152344 192.695312 102.304688 199.460938 93.878906 205.609375 C 92.773438 206.410156 91.679688 207.203125 90.4375 208.054688 L 86.898438 210.492188 C 84.625 212.082031 82.273438 213.722656 79.878906 215.183594 C 77.152344 216.84375 74.777344 218.035156 72.644531 218.804688 C 70.742188 219.515625 68.796875 219.90625 67.171875 219.90625 C 66.519531 219.90625 65.90625 219.847656 65.347656 219.722656 C 64.765625 219.605469 64.3125 219.429688 63.976562 219.296875 L 63.761719 219.214844 L 63.683594 219.175781 L 63.390625 219.117188 L 63.117188 218.910156 L 62.152344 218.519531 L 61.882812 217.953125 C 61.859375 217.933594 61.53125 217.652344 61.53125 217.652344 L 61.421875 217.511719 C 61.324219 217.414062 61.199219 217.273438 61.0625 217.101562 C 60.738281 216.703125 60.527344 216.328125 60.390625 216.085938 L 60.242188 215.832031 L 60.167969 215.675781 C 59.710938 214.710938 59.386719 213.542969 59.226562 212.242188 C 59.097656 211.074219 59.097656 209.804688 59.226562 208.472656 L 59.332031 207.589844 L 59.421875 207.042969 C 59.464844 206.75 59.480469 206.6875 59.503906 206.574219 L 59.554688 206.308594 C 59.660156 205.78125 59.777344 205.183594 59.941406 204.558594 C 60.21875 203.398438 60.582031 202.1875 61.101562 200.730469 C 61.976562 198.3125 63.113281 195.839844 64.472656 193.398438 C 65.617188 191.3125 67.03125 189.046875 68.820312 186.445312 L 69.980469 184.789062 L 73.707031 179.769531 C 77.800781 174.597656 81.078125 170.75 84.292969 167.34375 C 88.152344 163.121094 92.253906 159.175781 95.835938 155.761719 C 100.371094 151.582031 104.230469 148.179688 107.96875 145.066406 C 116.707031 137.734375 125.589844 130.941406 133.125 125.269531 C 135.894531 123.179688 138.660156 121.097656 141.425781 119.023438 C 155.75 108.277344 169.277344 98.125 181.964844 86.757812 C 183.730469 85.175781 185.5625 83.488281 187.539062 81.617188 L 190.222656 79.035156 C 190.953125 78.316406 191.949219 77.511719 193.003906 76.667969 C 194.21875 75.710938 195.464844 74.746094 196.722656 73.773438 C 199.339844 71.738281 202.046875 69.636719 204.628906 67.503906 C 207.691406 64.957031 214.691406 58.335938 217.902344 54.882812 C 216.828125 54.777344 215.519531 54.679688 214.4375 54.589844 C 211.6875 57.328125 205.394531 63.503906 202.988281 65.472656 C 200.433594 67.558594 197.863281 69.527344 195.140625 71.613281 C 193.878906 72.578125 192.597656 73.5625 191.335938 74.542969 L 190.933594 74.859375 C 190.074219 75.539062 189.261719 76.183594 188.347656 77.050781 L 185.609375 79.65625 C 183.617188 81.511719 181.8125 83.15625 180.097656 84.671875 C 167.496094 95.824219 153.792969 105.96875 139.289062 116.710938 C 136.605469 118.699219 133.910156 120.695312 131.207031 122.710938 C 123.597656 128.363281 114.628906 135.128906 105.769531 142.464844 C 102 145.5625 97.957031 149.085938 93.457031 153.183594 C 89.59375 156.816406 85.503906 160.710938 81.65625 164.894531 C 78.359375 168.367188 74.90625 172.390625 70.792969 177.558594 L 66.988281 182.648438 L 65.796875 184.328125 C 63.925781 187.039062 62.476562 189.339844 61.222656 191.59375 C 59.75 194.226562 58.523438 196.875 57.582031 199.449219 C 57.027344 200.992188 56.605469 202.367188 56.292969 203.648438 L 56.273438 203.726562 C 56.101562 204.371094 55.964844 205.046875 55.804688 205.867188 L 55.785156 205.957031 C 55.765625 206.046875 55.730469 206.246094 55.71875 206.324219 L 55.628906 206.875 C 55.578125 207.21875 55.515625 207.703125 55.476562 208.058594 C 55.308594 209.710938 55.304688 211.230469 55.464844 212.679688 C 55.667969 214.414062 56.089844 215.941406 56.75 217.339844 C 57.226562 218.269531 57.636719 218.925781 58.074219 219.460938 L 58.136719 219.535156 L 58.199219 219.613281 C 58.347656 219.8125 58.605469 220.078125 58.875 220.359375 L 58.996094 220.484375 C 59.113281 220.59375 59.1875 220.664062 59.238281 220.710938 C 59.292969 220.753906 59.367188 220.816406 59.503906 220.941406 L 59.828125 221.21875 C 59.953125 221.320312 60.183594 221.488281 60.34375 221.605469 C 60.542969 221.75 60.75 221.890625 60.953125 222.027344 C 61.394531 222.28125 61.746094 222.476562 62.089844 222.648438 C 62.929688 223.027344 63.730469 223.296875 64.503906 223.457031 C 65.378906 223.648438 66.308594 223.746094 67.265625 223.746094 C 67.957031 223.746094 68.675781 223.695312 69.402344 223.597656 C 70.851562 223.394531 72.289062 223.03125 73.902344 222.457031 C 77.058594 221.316406 79.722656 219.816406 81.902344 218.503906 C 84.382812 217.003906 86.726562 215.378906 88.996094 213.808594 L 92.65625 211.304688 C 93.636719 210.636719 94.800781 209.816406 96.210938 208.796875 C 104.585938 202.738281 112.484375 195.945312 120.121094 189.378906 L 123.046875 186.863281 C 125.09375 185.105469 127.257812 183.265625 129.75 181.167969 C 133.675781 177.929688 142.550781 170.476562 145.769531 167.949219 C 147.160156 166.828125 148.59375 165.679688 150.058594 164.515625 C 153.808594 161.390625 157.199219 158.75 159.109375 157.398438 C 165.332031 152.570312 171.515625 147.902344 177.519531 143.507812 C 187.203125 136.425781 196.863281 129.671875 206.238281 123.425781 L 213.566406 118.570312 C 215.957031 116.984375 218.449219 115.273438 220.871094 113.613281 C 222.429688 112.542969 223.980469 111.472656 225.527344 110.40625 C 228.75 108.175781 232.085938 105.875 235.375 103.664062 C 244.097656 97.796875 254.503906 91.136719 265.519531 86.207031 " fill-opacity="1" fill-rule="nonzero"/><path fill="#ae561d" d="M 298.457031 80.597656 C 298.304688 81.191406 296.535156 85.890625 296.296875 86.480469 C 295.882812 87.554688 295.289062 88.761719 294.503906 90.15625 C 293.871094 91.285156 293.210938 92.300781 292.449219 93.476562 L 292.234375 93.804688 C 289.128906 98.546875 285.703125 103.234375 282.046875 107.742188 C 278.316406 112.308594 274.433594 116.605469 270.519531 120.492188 C 269.636719 121.382812 268.734375 122.246094 267.863281 123.082031 L 267.398438 123.523438 C 266.363281 124.488281 265.339844 125.445312 264.242188 126.4375 L 257.839844 132.265625 C 248.636719 140.578125 238.226562 149.800781 226.980469 158.921875 C 223.953125 161.296875 226.199219 163.496094 229.726562 161.121094 C 238.929688 153.714844 248.746094 145.296875 260.253906 134.960938 L 266.71875 129.121094 C 267.765625 128.179688 268.863281 127.167969 269.914062 126.191406 L 270.238281 125.882812 C 271.226562 124.945312 272.160156 124.058594 273.097656 123.121094 C 277.148438 119.128906 281.136719 114.75 284.949219 110.105469 C 288.707031 105.511719 292.234375 100.722656 295.425781 95.882812 L 295.679688 95.496094 C 296.363281 94.453125 297.144531 93.269531 297.808594 92.085938 C 298.464844 90.929688 299.167969 89.507812 299.851562 87.941406 C 300.445312 86.585938 301.941406 83.183594 302.066406 82.8125 C 300.953125 82.09375 299.59375 81.292969 298.457031 80.597656 " fill-opacity="1" fill-rule="nonzero"/><path fill="#eecd8c" d="M 292.445312 93.476562 L 292.230469 93.804688 C 289.128906 98.546875 285.703125 103.234375 282.042969 107.742188 C 278.316406 112.3125 274.433594 116.605469 270.519531 120.492188 C 269.636719 121.382812 268.734375 122.246094 267.859375 123.082031 L 267.398438 123.523438 C 266.363281 124.488281 265.339844 125.441406 264.246094 126.4375 L 257.839844 132.265625 C 248.636719 140.578125 238.222656 149.800781 226.980469 158.925781 C 224.578125 160.804688 225.5 162.570312 227.742188 162.035156 C 226.664062 161.671875 226.59375 160.332031 228.390625 158.925781 C 239.632812 149.800781 250.046875 140.578125 259.25 132.265625 L 265.652344 126.4375 C 266.75 125.441406 267.773438 124.488281 268.808594 123.523438 L 269.269531 123.082031 C 270.144531 122.246094 271.042969 121.382812 271.925781 120.492188 C 275.839844 116.605469 279.726562 112.3125 283.453125 107.742188 C 287.113281 103.234375 290.539062 98.546875 293.640625 93.804688 L 293.855469 93.476562 C 294.621094 92.300781 295.28125 91.285156 295.914062 90.15625 C 296.699219 88.761719 297.289062 87.554688 297.707031 86.480469 C 297.898438 86.003906 299.113281 82.789062 299.648438 81.300781 C 299.246094 81.054688 298.828125 80.824219 298.457031 80.597656 C 298.304688 81.191406 296.535156 85.894531 296.296875 86.480469 C 295.882812 87.554688 295.289062 88.761719 294.503906 90.15625 C 293.871094 91.285156 293.210938 92.300781 292.445312 93.476562 " fill-opacity="1" fill-rule="nonzero"/><path fill="#eecd8c" d="M 217.800781 110.628906 C 215.496094 112.203125 213.324219 113.6875 210.980469 115.238281 L 203.644531 120.082031 C 193.886719 126.566406 184.171875 133.351562 174.769531 140.257812 C 163.507812 148.519531 152.105469 157.347656 140.675781 166.640625 C 139.28125 167.859375 132.230469 173.632812 129.089844 176.21875 C 126.089844 178.738281 123.09375 181.285156 120.101562 183.859375 L 118.121094 185.566406 C 109.816406 192.730469 101.96875 199.496094 93.542969 205.644531 C 92.4375 206.445312 91.34375 207.238281 90.101562 208.09375 L 86.5625 210.527344 C 84.289062 212.117188 81.9375 213.761719 79.542969 215.21875 C 76.816406 216.878906 74.441406 218.070312 72.308594 218.84375 C 70.648438 219.460938 68.972656 219.820312 67.488281 219.90625 C 67.738281 219.925781 67.984375 219.945312 68.246094 219.945312 C 69.871094 219.945312 71.816406 219.554688 73.71875 218.84375 C 75.851562 218.070312 78.226562 216.878906 80.953125 215.21875 C 83.347656 213.761719 85.699219 212.117188 87.972656 210.527344 L 91.511719 208.09375 C 92.753906 207.238281 93.847656 206.445312 94.953125 205.644531 C 103.378906 199.496094 111.226562 192.730469 119.53125 185.566406 L 121.511719 183.859375 C 124.503906 181.285156 127.5 178.738281 130.5 176.21875 C 133.640625 173.632812 140.691406 167.859375 142.085938 166.640625 C 153.511719 157.347656 164.917969 148.519531 176.179688 140.257812 C 185.582031 133.351562 195.296875 126.566406 205.054688 120.082031 L 212.390625 115.238281 C 214.734375 113.6875 216.90625 112.203125 219.210938 110.628906 L 219.65625 110.324219 C 221.207031 109.261719 222.753906 108.199219 224.308594 107.128906 C 227.535156 104.90625 230.875 102.605469 234.207031 100.375 C 239.890625 96.5625 244.644531 93.542969 249.171875 90.863281 C 254.492188 87.71875 259.808594 84.949219 264.964844 82.632812 C 271.089844 79.90625 276.59375 77.929688 281.773438 76.601562 L 282.503906 76.394531 C 282.550781 76.382812 286.675781 75.503906 288.488281 75.089844 C 288.34375 75.015625 288.1875 74.941406 288.039062 74.863281 C 288.039062 74.863281 281.152344 76.378906 281.09375 76.394531 L 280.363281 76.601562 C 275.183594 77.929688 269.683594 79.90625 263.554688 82.632812 C 258.398438 84.949219 253.085938 87.71875 247.765625 90.863281 C 243.234375 93.542969 238.480469 96.5625 232.796875 100.375 C 229.464844 102.605469 226.125 104.90625 222.898438 107.128906 C 221.34375 108.199219 219.796875 109.261719 218.246094 110.324219 L 217.800781 110.628906 " fill-opacity="1" fill-rule="nonzero"/><path fill="#eecd8c" d="M 255.015625 200.042969 C 247.121094 204.953125 238.960938 210.023438 230.730469 214.984375 L 228.957031 216.050781 C 227.324219 217.03125 225.6875 218.015625 224.066406 218.960938 L 223.511719 219.289062 C 221.496094 220.476562 219.414062 221.707031 217.308594 222.910156 L 213.867188 224.890625 L 210.472656 226.804688 C 207.699219 228.347656 205.558594 229.496094 203.546875 230.519531 C 198.496094 233.125 193.757812 235.171875 189.019531 236.800781 C 186.980469 237.46875 184.28125 238.308594 181.449219 238.875 C 179.183594 239.386719 176.652344 239.734375 173.710938 239.949219 L 173.507812 239.957031 C 173.207031 239.964844 172.914062 239.976562 172.621094 239.988281 C 172.300781 240.003906 171.972656 240.011719 171.636719 240.023438 C 171.882812 240.03125 172.117188 240.03125 172.347656 240.03125 C 172.949219 240.03125 173.492188 240.011719 174.03125 239.988281 C 174.324219 239.976562 174.617188 239.964844 174.917969 239.957031 L 175.121094 239.949219 C 178.0625 239.734375 180.59375 239.386719 182.859375 238.875 C 185.691406 238.308594 188.390625 237.46875 190.429688 236.800781 C 195.167969 235.171875 199.90625 233.125 204.953125 230.519531 C 206.964844 229.496094 209.109375 228.347656 211.882812 226.804688 L 215.277344 224.890625 L 218.71875 222.910156 C 220.824219 221.707031 222.90625 220.476562 224.921875 219.289062 L 225.476562 218.960938 C 227.097656 218.015625 228.734375 217.03125 230.367188 216.050781 L 232.140625 214.984375 C 240.371094 210.023438 248.53125 204.953125 256.425781 200.042969 L 258.25 198.910156 C 274.472656 188.804688 291.742188 178.171875 308.902344 168.992188 L 315.179688 165.6875 C 316.671875 164.894531 318.242188 164.015625 319.757812 163.164062 L 321.304688 162.304688 C 324.910156 160.285156 329.175781 157.925781 333.515625 155.675781 C 338.171875 153.257812 342.082031 151.382812 345.828125 149.769531 C 348.117188 148.800781 350.179688 148.003906 352.113281 147.339844 C 352.75 147.125 355.433594 146.222656 357.097656 145.679688 C 357.035156 145.535156 356.976562 145.394531 356.929688 145.28125 C 356.160156 145.507812 351.5625 147.050781 350.703125 147.339844 C 348.769531 148.003906 346.707031 148.800781 344.421875 149.769531 C 340.675781 151.382812 336.761719 153.257812 332.105469 155.675781 C 327.765625 157.925781 323.5 160.285156 319.894531 162.304688 L 318.347656 163.164062 C 316.832031 164.015625 315.265625 164.894531 313.769531 165.6875 L 307.492188 168.992188 C 290.332031 178.171875 273.0625 188.804688 256.839844 198.910156 L 255.015625 200.042969 " fill-opacity="1" fill-rule="nonzero"/><path fill="#eecd8c" d="M 171.152344 242.6875 L 169.417969 242.644531 C 169.328125 242.636719 169.078125 242.617188 169.078125 242.617188 C 168.785156 242.585938 168.496094 242.5625 168.210938 242.535156 C 167.722656 242.496094 167.300781 242.460938 166.914062 242.390625 C 166.695312 242.351562 166.445312 242.308594 166.195312 242.265625 C 165.675781 242.179688 165.226562 242.105469 164.824219 241.984375 L 163.589844 241.648438 C 163.257812 241.527344 162.921875 241.398438 162.589844 241.269531 L 162.046875 241.054688 L 161.558594 240.808594 L 161.207031 240.625 C 160.964844 240.5 160.757812 240.390625 160.601562 240.292969 C 160.21875 240.03125 159.839844 239.765625 159.464844 239.492188 C 159.359375 239.410156 159.117188 239.183594 158.886719 238.964844 L 158.652344 238.742188 C 157.582031 237.675781 156.71875 236.230469 156.269531 234.761719 C 155.832031 233.378906 155.667969 231.90625 155.757812 230.21875 C 155.832031 228.769531 156.066406 227.316406 156.445312 225.902344 C 156.8125 224.5 157.257812 223.171875 157.820312 221.804688 C 158.824219 219.335938 160.066406 216.933594 161.742188 214.222656 C 162.59375 212.867188 163.347656 211.746094 164.097656 210.722656 C 164.445312 210.230469 164.773438 209.804688 165.101562 209.378906 L 165.390625 209.003906 L 165.527344 208.828125 C 165.917969 208.339844 166.308594 207.851562 166.757812 207.332031 C 167.046875 206.988281 167.25 206.753906 167.464844 206.515625 C 169.40625 204.402344 171.113281 203.109375 172.253906 202.597656 C 171.871094 201.746094 169.277344 203.007812 166.054688 206.515625 C 165.839844 206.753906 165.636719 206.988281 165.347656 207.332031 C 164.898438 207.851562 164.507812 208.339844 164.117188 208.828125 L 163.980469 209.003906 L 163.691406 209.378906 C 163.363281 209.804688 163.035156 210.230469 162.6875 210.722656 C 161.9375 211.746094 161.183594 212.867188 160.332031 214.222656 C 158.65625 216.933594 157.414062 219.335938 156.414062 221.804688 C 155.847656 223.171875 155.402344 224.5 155.035156 225.902344 C 154.65625 227.316406 154.421875 228.769531 154.347656 230.21875 C 154.261719 231.90625 154.425781 233.378906 154.859375 234.761719 C 155.308594 236.230469 156.175781 237.675781 157.242188 238.742188 L 157.476562 238.964844 C 157.707031 239.183594 157.949219 239.410156 158.054688 239.492188 C 158.429688 239.765625 158.808594 240.03125 159.191406 240.292969 C 159.347656 240.390625 159.558594 240.5 159.796875 240.625 L 160.148438 240.808594 L 160.636719 241.054688 L 161.179688 241.269531 C 161.515625 241.398438 161.847656 241.527344 162.179688 241.648438 L 163.417969 241.984375 C 163.820312 242.105469 164.265625 242.179688 164.785156 242.265625 C 165.035156 242.308594 165.285156 242.351562 165.503906 242.390625 C 165.894531 242.460938 166.3125 242.496094 166.800781 242.535156 C 167.085938 242.5625 167.378906 242.585938 167.667969 242.617188 C 167.667969 242.617188 167.917969 242.636719 168.007812 242.644531 L 169.742188 242.6875 C 170 242.699219 170.277344 242.707031 170.574219 242.707031 C 170.839844 242.707031 171.128906 242.699219 171.421875 242.695312 C 171.335938 242.691406 171.234375 242.691406 171.152344 242.6875 " fill-opacity="1" fill-rule="nonzero"/><path fill="#eecd8c" d="M 362.636719 163.175781 C 362.613281 163.046875 362.316406 161.808594 362.289062 161.675781 C 360.855469 163.773438 356.261719 171.074219 354.40625 173.421875 C 353.242188 174.890625 352.007812 176.386719 350.734375 177.871094 C 352.042969 176.410156 353.308594 174.941406 354.492188 173.507812 C 356.34375 171.269531 361.195312 165.1875 362.636719 163.175781 " fill-opacity="1" fill-rule="nonzero"/><path fill="#eecd8c" d="M 65.578125 223.496094 C 64.804688 223.332031 64.003906 223.0625 63.164062 222.683594 C 62.820312 222.511719 62.464844 222.316406 62.027344 222.0625 C 61.824219 221.925781 61.617188 221.785156 61.417969 221.640625 C 61.257812 221.523438 61.027344 221.359375 60.902344 221.253906 L 60.578125 220.976562 C 60.441406 220.851562 60.367188 220.789062 60.3125 220.746094 C 60.261719 220.699219 60.1875 220.628906 60.070312 220.519531 L 59.949219 220.394531 C 59.679688 220.113281 59.421875 219.847656 59.273438 219.648438 L 59.210938 219.570312 L 59.148438 219.496094 C 58.707031 218.960938 58.296875 218.308594 57.824219 217.375 C 57.164062 215.976562 56.742188 214.453125 56.539062 212.714844 C 56.378906 211.265625 56.382812 209.746094 56.550781 208.09375 C 56.589844 207.738281 56.652344 207.253906 56.703125 206.910156 L 56.792969 206.359375 C 56.804688 206.28125 56.839844 206.082031 56.859375 205.992188 L 56.878906 205.902344 C 57.039062 205.085938 57.175781 204.40625 57.347656 203.761719 L 57.367188 203.683594 C 57.679688 202.402344 58.097656 201.027344 58.65625 199.488281 C 59.597656 196.910156 60.824219 194.261719 62.296875 191.632812 C 63.550781 189.378906 65 187.074219 66.871094 184.367188 L 68.0625 182.6875 L 71.867188 177.59375 C 75.980469 172.425781 79.429688 168.402344 82.730469 164.929688 C 86.578125 160.746094 90.667969 156.851562 94.53125 153.222656 C 99.03125 149.121094 103.074219 145.601562 106.84375 142.503906 C 115.703125 135.164062 124.671875 128.398438 132.28125 122.746094 C 134.984375 120.730469 137.679688 118.734375 140.363281 116.75 C 154.867188 106.003906 168.570312 95.859375 181.171875 84.707031 C 182.886719 83.191406 184.691406 81.550781 186.683594 79.691406 L 189.421875 77.085938 C 190.335938 76.21875 191.148438 75.578125 192.007812 74.894531 L 192.410156 74.578125 C 193.671875 73.597656 194.953125 72.613281 196.21875 71.648438 C 198.9375 69.5625 201.507812 67.59375 204.0625 65.507812 C 206.4375 63.566406 212.820312 57.5 215.632812 54.707031 C 215.203125 54.667969 214.632812 54.585938 214.203125 54.550781 C 211.453125 57.292969 205.0625 63.539062 202.652344 65.507812 C 200.097656 67.59375 197.527344 69.5625 194.808594 71.648438 C 193.542969 72.613281 192.261719 73.597656 191 74.578125 L 190.597656 74.894531 C 189.738281 75.578125 188.925781 76.21875 188.011719 77.085938 L 185.273438 79.691406 C 183.28125 81.550781 181.476562 83.191406 179.761719 84.707031 C 167.160156 95.859375 153.457031 106.003906 138.953125 116.75 C 136.269531 118.734375 133.574219 120.730469 130.871094 122.746094 C 123.261719 128.398438 114.292969 135.164062 105.433594 142.503906 C 101.664062 145.601562 97.621094 149.121094 93.121094 153.222656 C 89.257812 156.851562 85.167969 160.746094 81.320312 164.929688 C 78.023438 168.402344 74.570312 172.425781 70.457031 177.59375 L 66.652344 182.6875 L 65.464844 184.367188 C 63.589844 187.074219 62.140625 189.378906 60.890625 191.632812 C 59.414062 194.261719 58.1875 196.910156 57.246094 199.488281 C 56.691406 201.027344 56.269531 202.402344 55.957031 203.683594 L 55.9375 203.761719 C 55.769531 204.40625 55.628906 205.085938 55.46875 205.902344 L 55.449219 205.992188 C 55.429688 206.082031 55.394531 206.28125 55.382812 206.359375 L 55.292969 206.910156 C 55.242188 207.253906 55.179688 207.738281 55.140625 208.09375 C 54.972656 209.746094 54.96875 211.265625 55.128906 212.714844 C 55.332031 214.453125 55.753906 215.976562 56.414062 217.375 C 56.890625 218.308594 57.300781 218.960938 57.738281 219.496094 L 57.804688 219.570312 L 57.863281 219.648438 C 58.011719 219.847656 58.269531 220.113281 58.542969 220.394531 L 58.660156 220.519531 C 58.777344 220.628906 58.851562 220.699219 58.902344 220.746094 C 58.957031 220.789062 59.03125 220.851562 59.167969 220.976562 L 59.492188 221.253906 C 59.617188 221.359375 59.847656 221.523438 60.007812 221.640625 C 60.210938 221.785156 60.414062 221.925781 60.617188 222.0625 C 61.058594 222.316406 61.410156 222.511719 61.753906 222.683594 C 62.59375 223.0625 63.394531 223.332031 64.167969 223.496094 C 65.046875 223.683594 65.972656 223.78125 66.929688 223.78125 C 67.199219 223.78125 67.480469 223.765625 67.757812 223.75 C 67.011719 223.71875 66.273438 223.644531 65.578125 223.496094 " fill-opacity="1" fill-rule="nonzero"/><path fill="#eecd8c" d="M 74.679688 110.871094 C 75.140625 110.492188 75.601562 110.109375 76.0625 109.726562 C 76.941406 108.992188 77.824219 108.257812 78.734375 107.539062 L 82.878906 104.28125 C 84.835938 102.761719 86.890625 101.222656 89.019531 99.671875 C 89.222656 99.507812 89.425781 99.351562 89.628906 99.1875 C 90.550781 98.457031 91.472656 97.726562 92.417969 97.007812 C 93.179688 96.441406 93.976562 95.839844 94.777344 95.238281 C 96.9375 93.609375 99.175781 91.921875 101.441406 90.347656 C 107.207031 86.207031 113.617188 81.980469 121.085938 77.390625 C 131.457031 71.078125 152.722656 59.480469 164 54.136719 C 165.859375 53.964844 166.867188 53.96875 168.554688 53.878906 C 168.625 53.851562 168.910156 53.886719 168.980469 53.855469 C 166.511719 54.015625 164.789062 54.042969 162.367188 54.269531 C 151.089844 59.613281 130.046875 71.078125 119.675781 77.390625 C 112.207031 81.980469 105.796875 86.207031 100.03125 90.347656 C 97.765625 91.921875 95.53125 93.609375 93.367188 95.238281 C 92.566406 95.839844 91.769531 96.441406 91.007812 97.007812 C 90.0625 97.726562 89.140625 98.457031 88.21875 99.1875 C 87.703125 99.597656 87.1875 100.007812 86.683594 100.402344 L 85.941406 100.988281 C 84.75 101.929688 83.625 102.816406 82.496094 103.785156 C 77.285156 108.105469 72.320312 112.484375 67.632812 116.890625 C 68.003906 116.566406 68.378906 116.238281 68.753906 115.914062 C 70.660156 114.25 72.628906 112.527344 74.679688 110.871094 " fill-opacity="1" fill-rule="nonzero"/></svg>