<svg xmlns="http://www.w3.org/2000/svg" xmlns:xlink="http://www.w3.org/1999/xlink" width="500" zoomAndPan="magnify" viewBox="0 0 375 374.999991" height="500" preserveAspectRatio="xMidYMid meet" version="1.0"><defs><clipPath id="126fc46401"><path d="M 19.867188 9 L 350 9 L 350 358 L 19.867188 358 Z M 19.867188 9 " clip-rule="nonzero"/></clipPath></defs><g clip-path="url(#126fc46401)"><path fill="#eba869" d="M 316.375 78.707031 C 286.265625 36.859375 238.539062 9.820312 184.824219 9.820312 C 93.742188 9.820312 19.902344 87.558594 19.902344 183.457031 C 19.902344 210.378906 25.726562 235.867188 36.109375 258.605469 C 62.71875 316.863281 119.3125 357.089844 184.824219 357.089844 C 210.574219 357.089844 234.921875 350.875 256.632812 339.804688 C 258.792969 338.714844 260.910156 337.5625 263.015625 336.367188 C 314.664062 307.035156 349.75 249.5625 349.75 183.457031 C 349.75 144.105469 337.324219 107.8125 316.375 78.707031 Z M 203.125 130.308594 C 224.339844 138.308594 239.542969 159.855469 239.542969 185.167969 C 239.542969 217.300781 215.050781 243.351562 184.839844 243.351562 C 179.761719 243.351562 174.839844 242.613281 170.171875 241.230469 C 147.074219 234.421875 130.121094 211.886719 130.121094 185.15625 C 130.121094 153.019531 154.613281 126.972656 184.824219 126.972656 C 191.234375 126.972656 197.402344 128.152344 203.125 130.308594 Z M 203.125 130.308594 " fill-opacity="1" fill-rule="nonzero"/></g><path fill="#82685f" d="M 349.75 183.441406 C 349.75 279.339844 275.910156 357.078125 184.824219 357.078125 C 119.3125 357.078125 62.71875 316.863281 36.109375 258.59375 L 36.996094 254.914062 C 36.996094 254.914062 91.253906 367.691406 223.1875 344.257812 C 355.117188 320.820312 353.605469 123.003906 314.105469 80.546875 L 316.363281 78.695312 C 337.324219 107.8125 349.75 144.105469 349.75 183.441406 Z M 349.75 183.441406 " fill-opacity="0.11" fill-rule="nonzero"/><path fill="#82685f" d="M 217.628906 242.273438 C 192.136719 256.082031 169.75 242.640625 169.75 242.640625 L 170.171875 241.230469 C 174.839844 242.613281 179.75 243.351562 184.839844 243.351562 C 215.050781 243.351562 239.542969 217.300781 239.542969 185.167969 C 239.542969 159.855469 224.351562 138.324219 203.125 130.308594 L 203.1875 130.09375 C 236.726562 144.550781 245.761719 169.390625 246.789062 189.910156 C 247.855469 211.519531 236.648438 231.976562 217.628906 242.273438 Z M 217.628906 242.273438 " fill-opacity="0.11" fill-rule="nonzero"/><path fill="#f9f3d4" d="M 334.367188 131.613281 C 330.144531 121.125 322.808594 111.578125 311.65625 104.324219 C 278.054688 82.449219 287.902344 61.675781 259.78125 34.371094 C 231.664062 7.070312 179.738281 40.738281 138.003906 31.683594 C 115.644531 26.828125 103.917969 35.515625 97.855469 44.632812 C 90.582031 55.523438 81.800781 65.300781 71.652344 73.582031 C 49.722656 91.453125 42.65625 112.859375 40.472656 126.832031 C 38.949219 136.636719 36.589844 146.300781 33.277344 155.65625 C 19.867188 193.589844 42.289062 220.585938 40.613281 243.351562 C 39.953125 252.265625 42.210938 262.066406 47.339844 271.894531 C 53.226562 283.183594 62.882812 294.507812 76.246094 304.589844 C 82.042969 308.964844 88.554688 313.109375 95.746094 316.914062 C 98.730469 318.488281 101.824219 320.007812 105.046875 321.457031 C 105.097656 321.480469 105.136719 321.492188 105.1875 321.519531 C 105.707031 321.746094 106.214844 321.976562 106.710938 322.203125 C 149.183594 341.464844 124.832031 336.925781 176.121094 337.851562 C 198.707031 338.257812 216.789062 341.566406 231.574219 342.480469 C 241.203125 343.078125 249.441406 342.660156 256.609375 339.78125 C 258.828125 338.890625 260.960938 337.75 262.992188 336.34375 C 267.484375 333.222656 271.519531 328.734375 275.210938 322.417969 C 275.339844 322.191406 275.476562 321.960938 275.605469 321.746094 C 292.203125 293.644531 296.988281 302.75 312.367188 278.25 C 314.34375 275.105469 316.488281 271.402344 318.863281 266.988281 C 323.796875 257.808594 326.019531 250.425781 326.71875 244.175781 C 329.015625 223.882812 315.460938 215.414062 327.898438 195.222656 C 332.425781 187.882812 335.777344 179.269531 337.527344 170.203125 C 340.003906 157.523438 339.332031 143.914062 334.367188 131.613281 Z M 230.480469 245.1875 C 204.367188 262.269531 166.566406 257.3125 143.433594 239.8125 C 113.539062 217.1875 116.191406 179.726562 126.507812 157.21875 C 127.421875 155.226562 148 112.019531 186.894531 112.160156 C 221.5625 112.289062 242.957031 146.753906 249.820312 166.96875 C 251.660156 172.421875 267.28125 221.121094 230.480469 245.1875 Z M 230.480469 245.1875 " fill-opacity="1" fill-rule="nonzero"/><path fill="#fcc455" d="M 334.367188 131.613281 C 330.144531 121.125 322.808594 111.578125 311.65625 104.324219 C 278.054688 82.449219 287.902344 61.675781 259.78125 34.371094 C 231.664062 7.070312 179.738281 40.738281 138.003906 31.683594 C 115.644531 26.828125 103.917969 35.515625 97.855469 44.632812 C 90.582031 55.523438 81.800781 65.300781 71.652344 73.582031 C 49.722656 91.453125 42.65625 112.859375 40.472656 126.832031 C 38.949219 136.636719 36.589844 146.300781 33.277344 155.65625 C 19.867188 193.589844 42.289062 220.585938 40.613281 243.351562 C 39.953125 252.265625 42.210938 262.066406 47.339844 271.894531 C 53.226562 283.183594 62.882812 294.507812 76.246094 304.589844 C 82.042969 308.964844 88.554688 313.109375 95.746094 316.914062 C 98.730469 318.488281 101.824219 320.007812 105.046875 321.457031 C 105.097656 321.480469 105.136719 321.492188 105.1875 321.519531 C 105.707031 321.746094 106.214844 321.976562 106.710938 322.203125 C 149.183594 341.464844 124.832031 336.925781 176.121094 337.851562 C 198.707031 338.257812 216.789062 341.566406 231.574219 342.480469 C 241.203125 343.078125 249.441406 342.660156 256.609375 339.78125 C 258.828125 338.890625 260.960938 337.75 262.992188 336.34375 C 267.484375 333.222656 271.519531 328.734375 275.210938 322.417969 C 275.339844 322.191406 275.476562 321.960938 275.605469 321.746094 C 292.203125 293.644531 296.988281 302.75 312.367188 278.25 C 314.34375 275.105469 316.488281 271.402344 318.863281 266.988281 C 323.796875 257.808594 326.019531 250.425781 326.71875 244.175781 C 329.015625 223.882812 315.460938 215.414062 327.898438 195.222656 C 332.425781 187.882812 335.777344 179.269531 337.527344 170.203125 C 340.003906 157.523438 339.332031 143.914062 334.367188 131.613281 Z M 328.695312 177.265625 C 312.910156 202.730469 315.09375 214.917969 321.03125 228.5 C 326.972656 242.09375 312.441406 278.171875 301.492188 283.335938 C 290.554688 288.484375 276.632812 309.738281 276.632812 309.738281 C 266 346.601562 238.335938 340.667969 225.519531 335.355469 C 212.703125 330.039062 165.96875 330.828125 165.96875 330.828125 C 165.96875 330.828125 141.113281 342.695312 107.980469 316.457031 C 67.335938 303.652344 48.582031 266.9375 45.613281 249.601562 C 42.644531 232.265625 39.523438 193.828125 35.765625 178.839844 C 32.007812 163.835938 47.019531 135.886719 47.019531 135.886719 C 46.234375 92.933594 74.847656 89.332031 93.753906 59.191406 C 112.664062 29.046875 129.082031 31.378906 153.929688 39.660156 C 178.773438 47.941406 220.203125 19.359375 251 33.574219 C 281.796875 47.789062 278.195312 93.085938 303.839844 108.089844 C 329.472656 123.066406 344.480469 151.816406 328.695312 177.265625 Z M 328.695312 177.265625 " fill-opacity="0.33" fill-rule="nonzero"/><path fill="#ffffff" d="M 198.035156 57.074219 C 197.019531 56.679688 195.980469 56.363281 194.914062 56.121094 C 194.394531 56.007812 193.859375 55.90625 193.328125 55.828125 C 191.171875 55.511719 188.960938 55.144531 186.769531 54.980469 C 185.6875 54.902344 184.609375 54.890625 183.53125 54.96875 C 181.375 55.121094 179.117188 55.5 177.035156 55.792969 C 176.488281 55.867188 175.945312 55.957031 175.410156 56.070312 C 174.21875 56.324219 173.050781 56.679688 171.921875 57.125 C 169.484375 57.707031 167.351562 58.824219 165.539062 60.484375 C 163.496094 61.800781 161.882812 63.550781 160.703125 65.746094 C 159.332031 67.902344 158.597656 70.222656 158.484375 72.722656 C 157.925781 75.207031 158.039062 77.703125 158.8125 80.191406 C 159.449219 81.6875 160.070312 83.171875 160.703125 84.667969 C 162.367188 87.484375 164.613281 89.726562 167.429688 91.386719 C 168.925781 92.023438 170.410156 92.644531 171.910156 93.277344 C 175.234375 94.164062 178.558594 94.164062 181.882812 93.277344 C 183.542969 92.617188 185.296875 92.175781 187.058594 91.933594 C 185.398438 92.160156 183.734375 92.378906 182.074219 92.605469 C 184.050781 92.339844 186.070312 92.351562 188.050781 92.617188 C 186.386719 92.390625 184.726562 92.175781 183.0625 91.945312 C 184.761719 92.175781 186.4375 92.605469 188.050781 93.226562 C 190.535156 94.011719 193.035156 94.113281 195.523438 93.558594 C 198.023438 93.441406 200.34375 92.707031 202.503906 91.335938 C 204.683594 90.160156 206.449219 88.546875 207.769531 86.507812 C 209.429688 84.691406 210.546875 82.574219 211.132812 80.128906 C 211.359375 78.464844 211.574219 76.804688 211.804688 75.144531 C 211.789062 71.757812 210.941406 68.601562 209.242188 65.683594 C 208.261719 64.414062 207.285156 63.160156 206.308594 61.890625 C 203.972656 59.570312 201.207031 57.960938 198.035156 57.074219 Z M 198.035156 57.074219 " fill-opacity="0.33" fill-rule="nonzero"/><path fill="#ffffff" d="M 126.101562 72.875 C 120.136719 75.902344 114.464844 79.46875 109.148438 83.527344 C 102.601562 88.507812 96.332031 93.695312 90.722656 99.734375 C 85.191406 105.679688 80.140625 112.1875 75.671875 118.96875 C 72.03125 124.511719 68.847656 130.371094 66.195312 136.457031 C 62.90625 144.015625 59.953125 151.625 58.046875 159.652344 C 57.261719 162.949219 56.640625 166.285156 56.167969 169.632812 C 55.460938 174.757812 54.773438 179.855469 54.546875 185.015625 C 54.164062 193.613281 54.988281 202.046875 56.167969 210.554688 C 57.132812 217.554688 58.71875 224.46875 60.914062 231.175781 C 63.582031 239.304688 66.96875 247.308594 71.042969 254.839844 C 75.101562 262.359375 80.089844 269.246094 85.457031 275.878906 C 86.546875 277.234375 87.691406 278.554688 88.84375 279.859375 C 90.546875 281.6875 92.550781 282.980469 94.882812 283.742188 C 97.117188 284.921875 99.527344 285.453125 102.117188 285.351562 C 104.707031 285.453125 107.105469 284.90625 109.351562 283.742188 C 111.671875 282.980469 113.691406 281.699219 115.390625 279.859375 C 116.367188 278.59375 117.34375 277.335938 118.320312 276.066406 C 120.023438 273.140625 120.871094 269.992188 120.886719 266.609375 C 120.65625 264.945312 120.441406 263.285156 120.210938 261.625 C 119.324219 258.453125 117.710938 255.6875 115.390625 253.355469 C 113.703125 251.453125 112.066406 249.5 110.503906 247.496094 C 111.480469 248.765625 112.460938 250.019531 113.4375 251.289062 C 107.445312 243.527344 102.5 235.019531 98.679688 225.988281 C 99.3125 227.484375 99.933594 228.96875 100.570312 230.464844 C 96.507812 220.828125 93.730469 210.671875 92.320312 200.296875 C 92.550781 201.957031 92.765625 203.621094 92.992188 205.28125 C 91.660156 195.289062 91.625 185.15625 92.957031 175.160156 C 92.726562 176.824219 92.511719 178.484375 92.285156 180.144531 C 93.589844 170.507812 96.203125 161.074219 99.972656 152.105469 C 99.339844 153.605469 98.71875 155.085938 98.082031 156.582031 C 102.003906 147.300781 107.128906 138.5625 113.285156 130.574219 C 112.308594 131.84375 111.328125 133.097656 110.351562 134.367188 C 116.417969 126.542969 123.433594 119.492188 131.265625 113.417969 C 129.996094 114.390625 128.738281 115.367188 127.46875 116.34375 C 132.976562 112.097656 138.867188 108.355469 145.058594 105.210938 C 147.242188 104.03125 149.003906 102.421875 150.324219 100.378906 C 151.984375 98.566406 153.101562 96.449219 153.6875 94 C 154.472656 91.515625 154.574219 89.015625 154.015625 86.53125 C 153.902344 84.03125 153.167969 81.710938 151.796875 79.554688 C 150.820312 78.289062 149.84375 77.03125 148.863281 75.765625 C 146.53125 73.445312 143.765625 71.832031 140.589844 70.945312 C 138.929688 70.71875 137.265625 70.503906 135.605469 70.273438 C 132.191406 70.324219 129.03125 71.175781 126.101562 72.875 Z M 126.101562 72.875 " fill-opacity="0.33" fill-rule="nonzero"/><path fill="#ffffff" d="M 162.503906 310.6875 C 169.675781 311.742188 176.832031 312.566406 184.089844 312.515625 C 191.335938 312.476562 198.503906 311.628906 205.660156 310.523438 C 211.167969 309.675781 216.613281 308.417969 221.941406 306.78125 C 224.632812 305.957031 227.285156 305.03125 229.898438 304.003906 C 232.652344 302.925781 235.367188 301.761719 238.082031 300.59375 C 239.378906 300.035156 240.644531 299.453125 241.914062 298.855469 C 246.964844 296.449219 251.824219 293.65625 256.457031 290.511719 C 257.015625 290.132812 257.574219 289.738281 258.132812 289.347656 C 260.316406 288.167969 262.078125 286.554688 263.398438 284.515625 C 265.058594 282.699219 266.175781 280.582031 266.761719 278.136719 C 267.546875 275.648438 267.648438 273.152344 267.089844 270.667969 C 266.976562 268.167969 266.242188 265.847656 264.871094 263.691406 C 263.894531 262.421875 262.914062 261.167969 261.9375 259.898438 C 259.605469 257.578125 256.835938 255.96875 253.664062 255.082031 C 252.003906 254.851562 250.339844 254.636719 248.679688 254.410156 C 245.289062 254.421875 242.128906 255.269531 239.210938 256.96875 C 234.109375 260.585938 228.707031 263.753906 223.058594 266.457031 C 221.460938 267.214844 219.847656 267.941406 218.222656 268.625 C 219.722656 267.992188 221.207031 267.367188 222.703125 266.734375 C 215.433594 269.792969 207.855469 272.097656 200.117188 273.609375 C 197.933594 274.027344 195.738281 274.394531 193.542969 274.6875 C 195.207031 274.457031 196.867188 274.242188 198.53125 274.015625 C 190.855469 275.042969 183.074219 275.292969 175.347656 274.722656 C 173.175781 274.558594 171.019531 274.34375 168.863281 274.050781 C 170.523438 274.28125 172.1875 274.496094 173.851562 274.722656 C 173.40625 274.660156 172.949219 274.597656 172.503906 274.535156 C 170.019531 273.746094 167.519531 273.644531 165.03125 274.203125 C 162.53125 274.320312 160.210938 275.054688 158.050781 276.421875 C 155.871094 277.601562 154.105469 279.214844 152.785156 281.253906 C 151.125 283.070312 150.007812 285.1875 149.421875 287.632812 C 149.195312 289.296875 148.980469 290.957031 148.75 292.617188 C 148.761719 296.003906 149.613281 299.160156 151.3125 302.078125 C 152.289062 303.347656 153.269531 304.601562 154.246094 305.871094 C 156.566406 308.203125 159.332031 309.800781 162.503906 310.6875 Z M 162.503906 310.6875 " fill-opacity="0.33" fill-rule="nonzero"/><path fill="#ffffff" d="M 240.835938 116.546875 C 244.707031 121.265625 248.5625 125.984375 252.292969 130.800781 C 251.316406 129.535156 250.339844 128.277344 249.363281 127.011719 C 255.722656 135.226562 261.710938 143.777344 266.519531 152.996094 C 267.851562 155.554688 269.09375 158.167969 270.226562 160.820312 C 269.589844 159.324219 268.96875 157.839844 268.335938 156.34375 C 270.667969 161.871094 272.535156 167.617188 273.726562 173.5 C 274.070312 175.175781 274.347656 176.847656 274.578125 178.535156 C 274.347656 176.875 274.132812 175.210938 273.90625 173.550781 C 274.691406 179.359375 274.78125 185.269531 274.007812 191.089844 C 274.234375 189.429688 274.449219 187.765625 274.679688 186.105469 C 274.527344 187.234375 274.347656 188.351562 274.132812 189.464844 C 273.347656 191.953125 273.246094 194.449219 273.804688 196.9375 C 273.917969 199.433594 274.652344 201.753906 276.023438 203.910156 C 277.203125 206.09375 278.816406 207.855469 280.859375 209.171875 C 282.671875 210.835938 284.792969 211.949219 287.242188 212.535156 C 288.902344 212.761719 290.566406 212.976562 292.226562 213.207031 C 295.617188 213.195312 298.777344 212.34375 301.695312 210.644531 C 302.964844 209.667969 304.21875 208.691406 305.488281 207.714844 C 307.808594 205.382812 309.421875 202.617188 310.308594 199.445312 C 310.933594 196.214844 311.351562 192.929688 311.707031 189.667969 C 311.882812 188.070312 311.984375 186.460938 312.035156 184.851562 C 312.136719 181.539062 311.972656 178.230469 311.589844 174.945312 C 311.019531 170.0625 310.359375 165.183594 309.179688 160.386719 C 308.382812 157.140625 307.390625 153.945312 306.238281 150.800781 C 303.394531 143.078125 299.941406 135.546875 295.769531 128.445312 C 292.34375 122.609375 288.484375 117.03125 284.425781 111.617188 C 279.425781 104.945312 274.222656 98.4375 268.941406 91.984375 C 268.421875 91.335938 267.890625 90.703125 267.371094 90.058594 C 265.667969 88.230469 263.664062 86.9375 261.328125 86.175781 C 259.097656 84.996094 256.683594 84.464844 254.097656 84.566406 C 251.507812 84.464844 249.109375 85.007812 246.863281 86.175781 C 244.542969 86.9375 242.523438 88.21875 240.824219 90.058594 C 239.847656 91.324219 238.871094 92.582031 237.894531 93.847656 C 236.191406 96.777344 235.34375 99.921875 235.328125 103.308594 C 235.558594 104.96875 235.773438 106.632812 236 108.292969 C 236.902344 111.449219 238.5 114.214844 240.835938 116.546875 Z M 240.835938 116.546875 " fill-opacity="0.33" fill-rule="nonzero"/></svg>