<svg xmlns="http://www.w3.org/2000/svg" xmlns:xlink="http://www.w3.org/1999/xlink" width="500" zoomAndPan="magnify" viewBox="0 0 375 374.999991" height="500" preserveAspectRatio="xMidYMid meet" version="1.0"><path fill="#8a5a40" d="M 217.679688 44.398438 C 184.878906 27.144531 143.78125 29.671875 110.617188 46.210938 C 77.449219 62.742188 51.777344 91.933594 34.363281 124.625 C 20.503906 150.644531 11.304688 180.535156 16.511719 209.554688 C 20.414062 231.347656 32.148438 251.027344 46.042969 268.273438 C 98.042969 332.824219 189.632812 367.738281 268.015625 340.636719 C 286.585938 334.21875 304.253906 324.464844 318.09375 310.53125 C 334.308594 294.203125 344.609375 272.878906 351.992188 251.09375 C 364.574219 213.945312 369.347656 172.953125 357.554688 135.550781 C 345.769531 98.144531 305.960938 90.828125 217.6875 44.40625 Z M 217.679688 44.398438 " fill-opacity="1" fill-rule="nonzero"/><path fill="#67443a" d="M 153.566406 13.078125 C 76.457031 22.054688 20.46875 98.660156 12.558594 175.808594 C 10.285156 197.980469 11.457031 221.585938 23 240.652344 C 32.300781 256.019531 47.386719 266.917969 62.667969 276.371094 C 100.667969 299.886719 142.496094 317.214844 186.011719 327.457031 C 204.171875 331.734375 225.316406 334.132812 239.667969 322.230469 C 245.40625 317.464844 249.339844 310.910156 254.550781 305.578125 C 267.371094 292.453125 286.519531 287.960938 301.789062 277.777344 C 326.960938 260.996094 339.140625 230.714844 347.503906 201.65625 C 354.652344 176.828125 360.011719 150.007812 351.878906 125.488281 C 345.824219 107.234375 332.816406 92.097656 318.691406 79.035156 C 283.605469 46.589844 239.589844 23.890625 153.566406 13.078125 Z M 153.566406 13.078125 " fill-opacity="1" fill-rule="nonzero"/><path fill="#5e3a31" d="M 31.742188 241.945312 C 37.175781 213.820312 42.613281 185.691406 48.046875 157.5625 C 50.105469 146.902344 52.664062 135.363281 61.019531 128.414062 C 80.566406 112.164062 110.679688 134.050781 135.125 127.042969 C 155.445312 121.222656 165.167969 97.652344 183.515625 87.15625 C 199.957031 77.746094 220.355469 80.308594 239.089844 83.15625 C 254.089844 85.433594 269.085938 87.714844 284.089844 89.992188 C 293.738281 91.453125 303.589844 92.984375 312.257812 97.472656 C 331.730469 107.5625 340.898438 129.886719 348.546875 150.429688 C 356.238281 132.59375 350.855469 111.640625 341.421875 94.660156 C 313.390625 44.199219 254 18.535156 196.597656 12.027344 C 171.277344 9.15625 144.867188 9.457031 121.324219 19.175781 C 100.710938 27.6875 83.554688 42.90625 68.695312 59.519531 C 48.574219 82.023438 31.878906 107.605469 19.703125 135.226562 C 11.777344 153.222656 5.703125 172.628906 7.140625 192.238281 C 8.574219 211.847656 18.761719 231.691406 31.742188 241.945312 Z M 31.742188 241.945312 " fill-opacity="1" fill-rule="nonzero"/><path fill="#8c7b80" d="M 313.265625 177.445312 C 296.425781 203.851562 278.617188 230.429688 253.839844 249.613281 C 229.066406 268.796875 195.816406 279.664062 165.824219 270.566406 C 158.570312 268.367188 150.070312 265.230469 144.003906 269.773438 C 135.605469 276.050781 141.410156 290.304688 150.613281 295.324219 C 159.820312 300.34375 171.085938 300.644531 180.132812 305.925781 C 183.851562 308.097656 187.160156 311.089844 191.261719 312.402344 C 201.085938 315.539062 211.070312 308.011719 217.425781 299.894531 C 223.777344 291.78125 229.261719 282.0625 238.765625 278.070312 C 243.089844 276.25 247.851562 275.828125 252.460938 274.964844 C 274.949219 270.730469 294.199219 255.59375 308.035156 237.375 C 321.875 219.167969 331.007812 197.910156 340.015625 176.886719 C 342.957031 170.003906 345.960938 162.863281 345.816406 155.378906 C 345.675781 147.894531 341.480469 139.941406 334.28125 137.871094 C 327.082031 135.800781 332.203125 147.746094 313.265625 177.4375 Z M 313.265625 177.445312 " fill-opacity="1" fill-rule="nonzero"/><path fill="#fcc585" d="M 24.121094 239.683594 C 40.855469 160.917969 79.851562 87.011719 135.425781 28.710938 C 141.117188 22.738281 147.320312 16.71875 155.230469 14.378906 C 163.144531 12.035156 173.160156 14.714844 176.425781 22.28125 C 119.449219 86.914062 81.734375 168.273438 69.238281 253.492188 C 68.300781 259.890625 67.617188 266.902344 71.03125 272.394531 C 76.394531 281.011719 89.703125 281.3125 98.109375 275.621094 C 106.519531 269.929688 111.144531 260.234375 115.183594 250.914062 C 141.558594 190.011719 159.199219 124.851562 194.316406 68.53125 C 202.855469 54.835938 212.570312 41.554688 225.363281 31.699219 C 230.847656 27.472656 237.566406 23.773438 244.378906 25.015625 C 253.5625 26.6875 259.039062 37.0625 258.460938 46.375 C 257.878906 55.6875 252.847656 64.0625 247.84375 71.9375 C 223.765625 109.847656 196.632812 146.917969 184.085938 190.027344 C 178.328125 209.828125 175.816406 230.398438 173.324219 250.863281 C 171.308594 267.417969 169.292969 283.96875 167.277344 300.519531 C 166.660156 305.585938 166.21875 311.28125 169.46875 315.210938 C 173.445312 320.015625 181.378906 319.609375 186.460938 315.988281 C 191.542969 312.367188 194.429688 306.484375 196.996094 300.800781 C 228.273438 231.550781 242.675781 153.84375 286.976562 92.097656 C 290.945312 86.570312 295.382812 80.992188 301.582031 78.171875 C 307.777344 75.351562 316.175781 76.230469 319.992188 81.863281 C 303.324219 95.824219 286.175781 110.371094 276.578125 129.878906 C 268.964844 145.347656 266.671875 162.8125 261.390625 179.230469 C 253.933594 202.40625 240.554688 223.371094 233.421875 246.660156 C 227.300781 266.644531 225.75 288.375 215.238281 306.441406 C 204.714844 324.507812 180.113281 337.238281 162.679688 325.683594 C 149.863281 317.1875 146.683594 299.386719 149.335938 284.253906 C 151.996094 269.125 159.148438 255.128906 162.566406 240.144531 C 169.035156 211.796875 161.824219 181.386719 170.078125 153.507812 C 177.8125 127.394531 198.511719 105.808594 202.355469 78.84375 C 198.289062 75.089844 192.148438 80.199219 189.296875 84.941406 C 152.671875 145.875 157.785156 226.234375 116.527344 284.140625 C 114.683594 286.734375 112.640625 289.351562 109.78125 290.753906 C 107.285156 291.964844 98.078125 313.394531 95.320312 313.125 C 79.636719 311.605469 54.863281 298.800781 51.027344 283.535156 C 47.1875 268.265625 68.851562 229.347656 71.417969 213.820312 C 79.523438 164.753906 88.050781 114.484375 112.902344 71.398438 C 91.675781 105.84375 70.140625 140.996094 60.398438 180.265625 C 53.949219 206.269531 52.347656 234.710938 36.515625 256.335938 C 27.582031 248.394531 26.003906 233.46875 24.09375 239.667969 Z M 24.121094 239.683594 " fill-opacity="1" fill-rule="nonzero"/><path fill="#fcc585" d="M 24.40625 244.152344 C 16.925781 223.800781 20.613281 201.1875 38.5625 184.390625 C 40.742188 182.347656 43.191406 180.308594 44.042969 177.445312 C 44.691406 175.246094 44.285156 172.902344 44.042969 170.625 C 42.46875 156.015625 48.203125 140.804688 59.015625 130.855469 C 62.933594 127.257812 67.523438 124.238281 70.417969 119.78125 C 74.183594 113.984375 74.511719 106.671875 76.609375 100.082031 C 83.210938 79.300781 105.835938 68.546875 119.1875 51.300781 " fill-opacity="1" fill-rule="nonzero"/><path fill="#f7a764" d="M 322.167969 69.582031 C 296.042969 72.1875 282.054688 100.835938 272.996094 125.460938 C 267.535156 140.296875 262.074219 155.136719 256.613281 169.980469 C 242.871094 207.335938 229.125 244.695312 215.378906 282.046875 C 210.664062 294.871094 205.316406 308.527344 194.015625 316.210938 C 182.714844 323.898438 163.710938 321.429688 159.578125 308.40625 C 151.222656 314.738281 160.019531 328.503906 170.09375 331.425781 C 184.152344 335.511719 200.476562 330.089844 209.289062 318.414062 C 215.996094 309.53125 220.398438 296.34375 231.449219 294.988281 C 223.285156 265.410156 245.816406 237.074219 254.355469 207.605469 C 259.507812 189.804688 259.917969 169.882812 270.945312 154.984375 C 278 145.460938 289.199219 138.289062 291.925781 126.757812 C 293.039062 122.023438 292.5625 116.976562 294.0625 112.347656 C 298.515625 98.582031 322.1875 98.054688 327.253906 111.605469 C 328.757812 105.980469 337.003906 104.835938 341.738281 108.226562 C 346.476562 111.621094 348.5 117.570312 350.242188 123.125 C 354.574219 101.421875 344.109375 77.550781 322.152344 69.597656 Z M 322.167969 69.582031 " fill-opacity="1" fill-rule="nonzero"/><path fill="#f7a764" d="M 240.933594 28.644531 C 242.957031 46.867188 237.796875 65.796875 226.792969 80.480469 C 220.261719 89.199219 211.828125 96.390625 205.457031 105.230469 C 194.730469 120.125 190.585938 138.621094 186.675781 156.550781 C 181.914062 178.40625 179.046875 212.441406 174.289062 234.296875 C 189.847656 199.6875 204.964844 153.566406 221.96875 119.640625 C 226.835938 109.933594 231.777344 100.117188 238.960938 91.96875 C 243.164062 87.199219 248.082031 83.070312 251.996094 78.074219 C 259.730469 68.203125 270.125 38.035156 274.957031 36.578125 C 268.429688 24.597656 253.777344 17.621094 240.925781 28.644531 Z M 240.933594 28.644531 " fill-opacity="1" fill-rule="nonzero"/><path fill="#f7a764" d="M 86.585938 283.539062 C 100.539062 263.746094 73.40625 238.160156 78.394531 214.46875 C 84.085938 187.449219 89.851562 160.183594 101.167969 134.984375 C 121.03125 90.734375 156.53125 55.808594 186.632812 17.753906 C 188.074219 15.925781 189.46875 13.136719 187.78125 11.535156 C 187.289062 11.0625 186.617188 10.835938 185.96875 10.644531 C 173.332031 6.964844 159.84375 14.585938 151.488281 24.753906 C 143.136719 34.914062 138.304688 47.460938 131.324219 58.601562 C 123.933594 70.382812 114.125 80.59375 107.507812 92.824219 C 93.699219 118.355469 70.917969 212.304688 65.792969 231.113281 C 60.703125 249.785156 70.953125 305.707031 86.585938 283.535156 Z M 86.585938 283.539062 " fill-opacity="1" fill-rule="nonzero"/><path fill="#d18834" d="M 30.113281 248.828125 C 29.996094 235.355469 19.175781 206.019531 28.890625 196.679688 C 68.929688 158.191406 28.695312 185.960938 100.738281 69.589844 C 107.457031 58.742188 140.792969 34.285156 139.9375 24.175781 C 117.070312 34.980469 84.511719 78.507812 74.949219 101.902344 C 71.925781 109.292969 69.652344 117.246094 64.414062 123.273438 C 61.304688 126.851562 57.316406 129.542969 53.777344 132.707031 C 44.40625 141.089844 38.296875 153.007812 36.953125 165.496094 C 36.429688 170.34375 36.574219 175.386719 34.738281 179.90625 C 33.214844 183.65625 30.457031 186.734375 27.953125 189.917969 C 19.449219 200.757812 13.4375 214.125 13.910156 227.886719 C 14.378906 241.652344 22.328125 255.578125 30.105469 248.828125 Z M 30.113281 248.828125 " fill-opacity="1" fill-rule="nonzero"/><path fill="#d18834" d="M 218.058594 62.863281 C 209.152344 82.222656 200.25 101.582031 191.34375 120.9375 C 185.523438 133.585938 179.683594 146.289062 175.816406 159.664062 C 170.640625 177.59375 167.796875 240.230469 154.179688 270.367188 C 150.070312 254.214844 151.492188 180.136719 180.042969 129.558594 C 186.933594 117.355469 193.023438 104.699219 198.277344 91.710938 C 198.769531 90.492188 199.261719 89.15625 198.882812 87.898438 C 198.226562 85.683594 195.28125 84.871094 194.429688 82.722656 C 193.535156 80.464844 195.335938 78.117188 197.015625 76.359375 C 201.992188 71.140625 206.96875 65.917969 218.066406 62.871094 Z M 218.058594 62.863281 " fill-opacity="1" fill-rule="nonzero"/><path fill="#d18834" d="M 186.476562 315.996094 C 204.335938 305.640625 216.152344 278.835938 223.007812 256.914062 C 228.273438 240.066406 229.175781 222.179688 233.335938 205.027344 C 239.652344 178.980469 266.257812 125.988281 279.710938 102.800781 C 254.292969 137.035156 225.351562 206.769531 213.363281 247.679688 C 206.003906 272.800781 193.949219 298.378906 186.46875 315.988281 Z M 186.476562 315.996094 " fill-opacity="1" fill-rule="nonzero"/></svg>